<?xml version="1.0" encoding="utf-8"?>
<!-- Generator: Adobe Illustrator 25.2.1, SVG Export Plug-In . SVG Version: 6.00 Build 0)  -->
<svg version="1.1" id="Слой_1" xmlns="http://www.w3.org/2000/svg" xmlns:xlink="http://www.w3.org/1999/xlink" x="0px" y="0px"
	 viewBox="0 0 1920 1080" style="enable-background:new 0 0 1920 1080;" xml:space="preserve">
<style type="text/css">
	.st0{fill:url(#SVGID_1_);}
	.st1{fill:none;stroke:#065366;stroke-width:7;stroke-miterlimit:10;}
	.st2{fill:none;stroke:#065366;stroke-width:12;stroke-miterlimit:10;}
	.st3{fill:#045366;}
	.st4{fill:none;stroke:#E77B21;stroke-width:9;stroke-miterlimit:10;}
	.st5{fill:none;stroke:#E77B21;stroke-width:15;stroke-miterlimit:10;}
	.st6{fill:#E67B22;}
	.st7{fill:#E8AA43;}
	.st8{fill:none;stroke:#E8AA43;stroke-width:9;stroke-miterlimit:10;}
	.st9{fill:#68AAB5;}
	.st10{fill:#062B35;}
	.st11{fill:none;stroke:#68AAB5;stroke-width:10;stroke-miterlimit:10;}
	.st12{fill:none;stroke:#68AAB5;stroke-width:5;stroke-miterlimit:10;}
	.st13{fill:none;stroke:#155366;stroke-width:5;stroke-miterlimit:10;}
	.st14{fill:#155366;}
	.st15{fill:none;stroke:#155366;stroke-width:7;stroke-miterlimit:10;}
	.st16{fill:#195467;}
	.st17{fill:none;stroke:#062B35;stroke-width:5;stroke-miterlimit:10;}
	.st18{fill:none;stroke:#062B35;stroke-width:6;stroke-miterlimit:10;}
	.st19{fill:#062C36;}
</style>
<linearGradient id="SVGID_1_" gradientUnits="userSpaceOnUse" x1="923.3851" y1="1505.3672" x2="923.3851" y2="-426.8117" gradientTransform="matrix(6.123234e-17 -1 1 6.123234e-17 424.6758 1465.0219)">
	<stop  offset="0" style="stop-color:#E5D1D1"/>
	<stop  offset="1.343453e-02" style="stop-color:#E7D4D4"/>
	<stop  offset="0.159" style="stop-color:#F8F2F2"/>
	<stop  offset="0.2386" style="stop-color:#FEFDFD"/>
	<stop  offset="0.5316" style="stop-color:#FFFFFF"/>
	<stop  offset="0.778" style="stop-color:#FBF6F6"/>
	<stop  offset="1" style="stop-color:#E5D1D1"/>
</linearGradient>
<polygon class="st0" points="1930,-1.8 1930,1085.1 -2.1,1085.1 -2.1,-1.8 "/>
<g>
	<path class="st1" d="M1899.4,512c78.4-11.5,250.5,245.9,181.7,467.9c-26,84-104.6,224-224.4,224.3
		c-119.3,0.4-224.4-123-224.3-224.3c0-84.9,73.7-101.5,167.5-274.5C1871.7,573.2,1864.1,517.2,1899.4,512z"/>
	<path class="st2" d="M1914,469.7c78.4-11.5,250.5,245.9,181.7,467.9c-26,84-104.6,224-224.4,224.3
		c-119.3,0.4-224.4-123-224.3-224.3c0-84.9,73.7-101.5,167.5-274.5C1886.2,530.8,1878.7,474.8,1914,469.7z"/>
	<path class="st2" d="M1914,520.9c78.4-11.5,250.5,245.9,181.7,467.9c-26,84-104.6,224-224.4,224.3
		c-119.3,0.4-224.4-123-224.3-224.3c0-84.9,73.7-101.5,167.5-274.5C1886.2,582,1878.7,526.1,1914,520.9z"/>
	<path class="st3" d="M1928.8,487.3c78.4-11.5,250.5,245.9,181.7,467.9c-26,84-104.6,224-224.4,224.3
		c-119.3,0.4-224.4-123-224.3-224.3c0-84.9,73.7-101.5,167.5-274.5C1901.1,548.4,1893.6,492.4,1928.8,487.3z"/>
</g>
<g>
	<path class="st4" d="M208.2-175.5C380.7-144,472.5,308.2,352.8,396.9c-38.7,28.6-93.4,14.9-144.6,2
		C113.9,375.1-66.3,287.3-67,111.7C-67.7-58.9,101.5-194.9,208.2-175.5z"/>
	<path class="st5" d="M192.5-193.6C365-162.1,456.7,290.1,337.1,378.8c-38.7,28.6-93.4,14.9-144.6,2C98.1,357-82,269.1-82.7,93.6
		C-83.5-77,85.7-213.1,192.5-193.6z"/>
	<path class="st6" d="M170-186.3C342.5-154.8,434.3,297.4,314.6,386c-38.7,28.6-93.4,14.9-144.6,2
		c-94.4-23.7-274.5-111.6-275.2-287.2C-105.9-69.7,63.3-205.8,170-186.3z"/>
</g>
<path class="st7" d="M1936.5-16.4c101,139.9,100.9,357.7,23.9,402.8c-31.3,18.3-74.1,7.5-95.7,2c-87.2-22.1-125.3-100.4-129.6-109.7
	c-32.5-69.7,6.4-97.8-17.9-145.6C1664.3,29.8,1446.7,93.5,1404,3.6c-22.6-47.5,12.5-119.4,55.8-155.5
	C1570.6-244.2,1822.2-174.7,1936.5-16.4z"/>
<g>
	<path class="st8" d="M993.8,843.1c169.7,13.1,333,155.4,313.1,239.5c-22.1,93.6-268.2,103.7-313.1,105.5
		c-127.8,5.2-366.5-16.2-384.9-105.5C590.4,992.7,793.4,827.7,993.8,843.1z"/>
	<path class="st8" d="M955,830.7c169.7,13.1,333,155.4,313.1,239.5c-22.1,93.6-268.2,103.7-313.1,105.5
		c-127.8,5.2-366.5-16.2-384.9-105.5C551.6,980.3,754.6,815.2,955,830.7z"/>
	<path class="st8" d="M993.8,813.6c169.7,13.1,333,155.4,313.1,239.5c-22.1,93.6-268.2,103.7-313.1,105.5
		c-127.8,5.2-366.5-16.2-384.9-105.5C590.4,963.2,793.4,798.1,993.8,813.6z"/>
	<path class="st7" d="M971.2,843.1c169.7,13.1,333,155.4,313.1,239.5c-22.1,93.6-268.2,103.7-313.1,105.5
		c-127.8,5.2-366.5-16.2-384.9-105.5C567.8,992.7,770.8,827.7,971.2,843.1z"/>
</g>
<path class="st9" d="M-73.7,601.8c65.5-23.5,194.8,94.2,218.9,229.6c26.1,147-72.3,312.4-145.1,308.9
	c-74.6-3.7-125.7-185.1-131.6-308.9C-133.1,798.7-141.4,626.2-73.7,601.8z"/>
<path class="st3" d="M555.8,169.7c-63.6-47.3-3.3-351,202.4-459.4c77.8-41,232.3-84.4,317.3,0c84.6,84.1,71.7,245.6,0,317.3
	c-60,60-123.9,19.6-312.6,75.6C618.6,146,584.4,190.9,555.8,169.7z"/>
<g>
	<circle class="st10" cx="1891" cy="648.7" r="11.5"/>
	<circle class="st10" cx="1891" cy="601.6" r="11.5"/>
	<circle class="st10" cx="1891.6" cy="555.2" r="11.5"/>
	<circle class="st10" cx="1932.7" cy="648.5" r="11.5"/>
	<circle class="st10" cx="1932.7" cy="601.5" r="11.5"/>
	<circle class="st10" cx="1933.3" cy="554" r="11.5"/>
	<circle class="st10" cx="1974.4" cy="648.3" r="11.5"/>
	<circle class="st10" cx="1975.3" cy="601.2" r="11.5"/>
	<circle class="st10" cx="1974.8" cy="553.8" r="11.5"/>
</g>
<g>
	<circle class="st7" cx="74.6" cy="255.8" r="13.2"/>
	<circle class="st7" cx="74.6" cy="202.2" r="13.2"/>
	<circle class="st7" cx="75.3" cy="149.2" r="13.2"/>
	<circle class="st7" cx="122.2" cy="255.6" r="13.2"/>
	<circle class="st7" cx="122.2" cy="202" r="13.2"/>
	<circle class="st7" cx="122.8" cy="147.8" r="13.2"/>
	<circle class="st7" cx="169.8" cy="255.4" r="13.2"/>
	<circle class="st7" cx="170.8" cy="201.7" r="13.2"/>
	<circle class="st7" cx="170.3" cy="147.6" r="13.2"/>
</g>
<path class="st6" d="M1479.1,751.9c26.5-40.2,82.2-71.2,105.7-55.8c38.2,24.9,6.3,181.8-45.9,191.4c-29.8,5.5-74.7-35.3-77.8-79.8
	C1459.4,781.8,1472.3,762.2,1479.1,751.9z"/>
<path class="st9" d="M657.9,925.7c150.5-8.8,281.5,219.6,253.3,253.3c-13.1,15.6-51.4-21.2-253.6-94
	c-90.7-32.6-130.5-42.3-133.6-67.8C519.4,981.1,590.6,929.7,657.9,925.7z"/>
<path class="st6" d="M123.1,424.9c11.5-23.2,117.4-1.7,117.7,14c0.2,9.9-41.9,17.4-55.8,19.9c-33.1,5.9-43.1-0.2-45.9-2
	C128.1,449.5,118.6,433.8,123.1,424.9z"/>
<path class="st3" d="M625.6,202.5c-0.4-3.2,1.3-5.8,2.3-7.2c17.4-24.5,92.7-79.1,113.3-58.6c13.7,13.6,2.8,59.9-27.9,78.7
	C678.6,236.8,627.7,217.4,625.6,202.5z"/>
<path class="st7" d="M1283.9,888.6c-4.3,3.9-14.9-6.6-100.8-62.4c-35.3-22.9-45.9-29.2-44.4-34c2.9-9.1,48.1-9.9,84.2,9.9
	C1268.7,827.2,1292.1,881.1,1283.9,888.6z"/>
<path class="st7" d="M1676.8,291.1c-7.2,2-24.4-16.8-22.4-38.3c1.5-16.3,13.9-31.8,20.7-30.1
	C1687.5,225.8,1688.5,287.9,1676.8,291.1z"/>
<g>
	<path class="st9" d="M1351.5-121.5c39.9,10.6,111.3,46.7,111.7,111.7c0.4,59.8-59.6,108.3-111.7,111.7
		c-92.8,6-174.5-130-143.6-189.5C1228.7-127.6,1301.6-134.8,1351.5-121.5z"/>
	<path class="st11" d="M1333.2-110.4c39.9,10.6,111.3,46.7,111.7,111.7c0.4,59.8-59.6,108.3-111.7,111.7
		c-92.8,6-174.5-130-143.6-189.5C1210.4-116.5,1283.3-123.7,1333.2-110.4z"/>
	<path class="st12" d="M1351.5-104.4c39.9,10.6,111.3,46.7,111.7,111.7c0.4,59.8-59.6,108.3-111.7,111.7
		c-92.8,6-174.5-130-143.6-189.5C1228.7-110.5,1301.6-117.7,1351.5-104.4z"/>
</g>
<path class="st9" d="M200.2,758.6c7.9,3.8,27.9,13.6,28.3,31.4c0.3,15.5-14.6,30.4-28.3,31.4c-27.3,1.9-53.9-51.8-42.9-65.9
	C164.4,746.3,187.8,752.6,200.2,758.6z"/>
<g>
	<circle class="st10" cx="713.3" cy="31.7" r="18.6"/>
	<circle class="st10" cx="713.3" cy="-44" r="18.6"/>
	<circle class="st10" cx="714.2" cy="-118.8" r="18.6"/>
	<circle class="st10" cx="780.5" cy="31.4" r="18.6"/>
	<circle class="st10" cx="780.5" cy="-44.3" r="18.6"/>
	<circle class="st10" cx="781.4" cy="-120.7" r="18.6"/>
	<circle class="st10" cx="847.6" cy="31.1" r="18.6"/>
	<circle class="st10" cx="849" cy="-44.7" r="18.6"/>
	<circle class="st10" cx="848.3" cy="-121.1" r="18.6"/>
</g>
<g>
	<circle class="st6" cx="1264.1" cy="1132.8" r="11.5"/>
	<circle class="st6" cx="1264.1" cy="1085.8" r="11.5"/>
	<circle class="st6" cx="1264.7" cy="1039.3" r="11.5"/>
	<circle class="st6" cx="1305.8" cy="1132.6" r="11.5"/>
	<circle class="st6" cx="1305.8" cy="1085.6" r="11.5"/>
	<circle class="st6" cx="1306.4" cy="1038.1" r="11.5"/>
	<circle class="st6" cx="1347.6" cy="1132.4" r="11.5"/>
	<circle class="st6" cx="1348.4" cy="1085.4" r="11.5"/>
	<circle class="st6" cx="1348" cy="1037.9" r="11.5"/>
</g>
<g>
	<circle class="st7" cx="1770.6" cy="390.4" r="10.9"/>
	<circle class="st7" cx="1770.6" cy="345.8" r="10.9"/>
	<circle class="st7" cx="1771.2" cy="301.8" r="10.9"/>
	<circle class="st7" cx="1810.2" cy="390.2" r="10.9"/>
	<circle class="st7" cx="1810.2" cy="345.7" r="10.9"/>
	<circle class="st7" cx="1810.7" cy="300.7" r="10.9"/>
	<circle class="st7" cx="1849.7" cy="390" r="10.9"/>
	<circle class="st7" cx="1850.5" cy="345.5" r="10.9"/>
	<circle class="st7" cx="1850.1" cy="300.5" r="10.9"/>
</g>
<ellipse class="st6" cx="1924" cy="144.6" rx="80.8" ry="72.8"/>
<path class="st7" d="M-3.5,147.6c97.4,9.5,173.6,126.8,153.6,189.5c-10.3,32.2-39.5,29.9-79.8,83.8C24.3,482.4,37,519.7,8.5,534.5
	c-52.4,27.2-193.5-48.1-209.3-163.5C-216.1,259.3-110.5,137.1-3.5,147.6z"/>
<path class="st9" d="M1843.2,668.1c34,16.6,120.7,59,122.1,135.5c1.2,66.9-63.2,131.4-122.1,135.5c-118,8.3-232.7-223.7-185.5-285
	C1688.2,614.6,1789.6,641.9,1843.2,668.1z"/>
<path class="st3" d="M207.9,883.4c56.6,53.7-12.7,285.9-126.6,295.1c-73,5.9-160.3-79.9-156.5-156.5
	C-69.4,903.6,152.8,831.1,207.9,883.4z"/>
<path class="st9" d="M918.4,971.4c9.1,7,32.2,24.7,32.6,56.8c0.3,29.4-20.1,58.7-32.6,56.8c-10.3-1.6-7.3-23.3-26.5-65.9
	c-15.2-33.8-28.5-45.6-23-53.5C875.3,956.3,902.6,959.3,918.4,971.4z"/>
<g>
	<circle class="st10" cx="290.2" cy="1129.2" r="11.5"/>
	<circle class="st10" cx="290.2" cy="1082.1" r="11.5"/>
	<circle class="st10" cx="290.8" cy="1035.7" r="11.5"/>
	<circle class="st10" cx="331.9" cy="1129" r="11.5"/>
	<circle class="st10" cx="331.9" cy="1081.9" r="11.5"/>
	<circle class="st10" cx="332.5" cy="1034.5" r="11.5"/>
	<circle class="st10" cx="373.6" cy="1128.8" r="11.5"/>
	<circle class="st10" cx="374.5" cy="1081.7" r="11.5"/>
	<circle class="st10" cx="374.1" cy="1034.3" r="11.5"/>
</g>
<g>
	<circle class="st6" cx="1678.2" cy="28.7" r="8.2"/>
	<circle class="st6" cx="1678.2" cy="-4.8" r="8.2"/>
	<circle class="st6" cx="1678.6" cy="-38" r="8.2"/>
	<circle class="st6" cx="1708" cy="28.6" r="8.2"/>
	<circle class="st6" cx="1708" cy="-5" r="8.2"/>
	<circle class="st6" cx="1708.4" cy="-38.8" r="8.2"/>
	<circle class="st6" cx="1737.7" cy="28.4" r="8.2"/>
	<circle class="st6" cx="1738.3" cy="-5.1" r="8.2"/>
	<circle class="st6" cx="1738" cy="-39" r="8.2"/>
</g>
<g>
	<circle class="st9" cx="498.7" cy="122.9" r="9"/>
	<circle class="st9" cx="498.7" cy="86.4" r="9"/>
	<circle class="st9" cx="499.2" cy="50.3" r="9"/>
	<circle class="st9" cx="531.1" cy="122.8" r="9"/>
	<circle class="st9" cx="531.1" cy="86.2" r="9"/>
	<circle class="st9" cx="531.6" cy="49.4" r="9"/>
	<circle class="st9" cx="563.6" cy="122.6" r="9"/>
	<circle class="st9" cx="564.2" cy="86.1" r="9"/>
	<circle class="st9" cx="563.9" cy="49.2" r="9"/>
</g>
<g>
	<circle class="st3" cx="-21.6" cy="518.2" r="7.5"/>
	<circle class="st3" cx="-21.6" cy="487.5" r="7.5"/>
	<circle class="st3" cx="-21.2" cy="457.2" r="7.5"/>
	<circle class="st3" cx="5.6" cy="518.1" r="7.5"/>
	<circle class="st3" cx="5.6" cy="487.4" r="7.5"/>
	<circle class="st3" cx="6" cy="456.4" r="7.5"/>
	<circle class="st3" cx="32.8" cy="517.9" r="7.5"/>
	<circle class="st3" cx="33.4" cy="487.2" r="7.5"/>
	<circle class="st3" cx="33.1" cy="456.3" r="7.5"/>
</g>
<g>
	<circle class="st9" cx="54.4" cy="931" r="9"/>
	<circle class="st9" cx="54.4" cy="894.2" r="9"/>
	<circle class="st9" cx="54.9" cy="858" r="9"/>
	<circle class="st9" cx="87" cy="930.8" r="9"/>
	<circle class="st9" cx="87" cy="894.1" r="9"/>
	<circle class="st9" cx="87.5" cy="857" r="9"/>
	<circle class="st9" cx="119.6" cy="930.7" r="9"/>
	<circle class="st9" cx="120.3" cy="893.9" r="9"/>
	<circle class="st9" cx="119.9" cy="856.9" r="9"/>
</g>
<g>
	<circle class="st3" cx="1395.2" cy="115.2" r="12.7"/>
	<circle class="st3" cx="1395.2" cy="63.5" r="12.7"/>
	<circle class="st3" cx="1395.8" cy="12.4" r="12.7"/>
	<circle class="st3" cx="1441.1" cy="115" r="12.7"/>
	<circle class="st3" cx="1441.1" cy="63.3" r="12.7"/>
	<circle class="st3" cx="1441.7" cy="11.1" r="12.7"/>
	<circle class="st3" cx="1486.9" cy="114.7" r="12.7"/>
	<circle class="st3" cx="1487.8" cy="63" r="12.7"/>
	<circle class="st3" cx="1487.4" cy="10.9" r="12.7"/>
</g>
<g>
	<circle class="st3" cx="740.2" cy="922.8" r="7.9"/>
	<circle class="st3" cx="740.2" cy="890.8" r="7.9"/>
	<circle class="st3" cx="740.5" cy="859.1" r="7.9"/>
	<circle class="st3" cx="768.6" cy="922.7" r="7.9"/>
	<circle class="st3" cx="768.6" cy="890.6" r="7.9"/>
	<circle class="st3" cx="769" cy="858.2" r="7.9"/>
	<circle class="st3" cx="797.1" cy="922.6" r="7.9"/>
	<circle class="st3" cx="797.7" cy="890.5" r="7.9"/>
	<circle class="st3" cx="797.4" cy="858.1" r="7.9"/>
</g>
<path class="st13" d="M1221.3-30.1c-9.1,5.7-41.6,27.8-55.8,71.8c-13.6,42-1.9,77.3,2,87.7"/>
<path class="st13" d="M290.9,155.7C279.5,126,249.1,59.5,178.3,11.8C146-10,114.5-21.6,90.6-28.1"/>
<path class="st13" d="M1460.6,241.1c48.1-44.6,125.2-105.8,233.3-153.6c102-45,193.8-61.5,257.3-67.8"/>
<path class="st13" d="M154.4,773.8c-8,12.7-20.7,28.6-39.9,41.7c-58.7,40-128.2,19.5-139.6,16"/>
<path class="st13" d="M2023,1042.8c-15.4-37.2-53.8-114.3-137.6-171.5c-39.5-27-77.9-41.8-107.4-50.3"/>
<path class="st14" d="M301.5,197.4c-0.9-3.9-0.2-4.7-0.9-10.3c-2.4-19.6-13.4-29.6-11.2-31.8c2.4-2.4,20.3,5.8,29.6,22.1
	c10.3,18.1,5.2,37.9,3.4,44.1C314.2,216.8,304.2,209.2,301.5,197.4z"/>
<path class="st14" d="M261.4,176.6c1.6-4,2.7-4.3,5.5-9.8c9.8-19,6.2-34.6,9.4-35.2c3.7-0.7,14.6,17.7,12.8,37.9
	c-1.9,22.5-18.6,37-24,41.4C260.8,201.7,256.7,188.8,261.4,176.6z"/>
<path class="st14" d="M264.5,130.3c-1.4,4.8-2.6,5.2-5.2,11.8c-9.1,22.7-3.2,40.1-6.9,41.2c-4.1,1.2-18.6-18.5-18.8-41.8
	c-0.3-25.9,17.1-44.3,22.8-49.9C262.5,101.6,268.6,115.9,264.5,130.3z"/>
<path class="st14" d="M101.9,51c3.3-11.3,8.1-14.6,13-32.9c6.7-24.7,3-37.6,6.8-38.5c6.5-1.4,28.2,35,21.9,71
	c-1.5,8.4-2.8,7.5-7.8,26.1c-9.5,35.5-7.2,48.7-11.6,49.5C116.1,127.6,91.6,86.2,101.9,51z"/>
<path class="st14" d="M304.6,151.7c4.3,0.8,5.1,0,11.2,0.4c21.3,1.6,32.7,12.9,34.9,10.4c2.5-2.8-7.4-21.7-25.5-30.8
	c-20.1-10.2-41.3-3.7-47.9-1.3C283,139,291.8,149.3,304.6,151.7z"/>
<path class="st14" d="M293.8,108.6c4.9-0.5,5.6-1.6,12.5-3c24-4.8,40,4.2,41.7,0.8c1.9-3.8-14.8-21.6-37.6-26.2
	c-25.4-5-46.7,8.7-53.2,13.3C266,101.3,278.9,110,293.8,108.6z"/>
<path class="st14" d="M188-62.1c-6.5,3.8-6.7,5.9-15.3,12.3c-30,22.3-58,20.3-58.1,26.1c-0.1,6.6,38.1,11.8,69,11.6
	c18.4-0.1,24.2-2.2,26.7-3.1c25.9-10,35.4-40.1,38.1-49.9C231.1-70.2,207.7-73.7,188-62.1z"/>
<path class="st14" d="M44.4,25.4c2.8-7,4.8-7.5,9.9-17c17.6-33,11.5-60.3,17.2-61.3c6.4-1.1,25.1,31.2,21.7,66.5
	C89.4,52.9,60,77.9,50.3,85.5C42.8,69.2,35.9,46.6,44.4,25.4z"/>
<path class="st14" d="M234.4,91.2c-1.5,5.3-2.9,5.9-5.9,13.2c-10.2,25.5-3.6,45-7.7,46.2c-4.6,1.3-20.8-20.8-21.1-46.9
	c-0.3-29,19.2-49.6,25.6-55.9C232.2,59,239,75.1,234.4,91.2z"/>
<path class="st14" d="M276.2,42.3c-15.6,0.4-17.6,7.2-34.6,7.6c-10.6,0.3-15.1-2.2-15.8-0.7c-1.6,3.8,23.7,26.3,46.6,21.7
	c8.1-1.6,8.8-5.2,27.2-11c7.5-2.4,13.5-3.7,13.6-6.2c0-1-0.9-2.7-10-5.8C292.9,44.5,285.9,42.1,276.2,42.3z"/>
<path class="st14" d="M156,78.5c0.5-2.9,0.9-3.7,4.2-15c13.3-45.2,13.8-53.2,17.2-53.5c6.7-0.5,18.7,29.1,16.9,59.3
	c-1.8,30.1-16.7,52.3-25.9,63.8C160.6,120.2,152.1,100.6,156,78.5z"/>
<path class="st14" d="M224,26.1c6.6-0.6,7.6-2.2,16.8-4c32.3-6.5,53.9,5.6,56.1,1C299.5,18,277-6,246.3-12.1
	c-34.1-6.8-62.8,11.7-71.6,17.9C186.5,16.3,203.9,28,224,26.1z"/>
<path class="st15" d="M1422.6,250.4c3.8-1.1,4.7-0.4,10.3-1.4c19.5-3.4,28.9-14.8,31.2-12.7c2.5,2.3-4.9,20.6-20.7,30.6
	c-17.6,11.2-37.7,7-43.9,5.5C1403.8,263.9,1411,253.7,1422.6,250.4z"/>
<path class="st15" d="M1441.5,206.4c4.1,1.4,4.5,2.5,10,5.1c19.4,8.9,34.8,4.5,35.6,7.8c0.8,3.6-17,15.4-37.2,14.6
	c-22.6-0.9-37.9-16.8-42.5-22C1416.5,206.9,1429.2,202.2,1441.5,206.4z"/>
<path class="st15" d="M1478.7,203.8c-4.8-1.1-5.4-2.4-12-4.7c-23.2-8.1-40.2-1.3-41.5-5c-1.4-4,17.6-19.4,40.9-20.8
	c25.8-1.5,45,15,50.9,20.5C1507.3,200.5,1493.3,207.2,1478.7,203.8z"/>
<path class="st15" d="M1613.5,50.6c9.6,6.9,11.1,12.5,26.7,23.2c21.1,14.5,34.5,15.4,34,19.2c-0.8,6.6-42.4,15-74.2-2.9
	c-7.4-4.2-6.1-5.2-22-16.1c-30.3-20.8-43.5-23-42.8-27.4C1536.5,38.6,1583.8,29.2,1613.5,50.6z"/>
<path class="st15" d="M1486,235.7c0.1,4.3,1.1,5,1.8,11.1c2.7,21.2-6.1,34.6-3.2,36.3c3.2,1.9,19.7-11.6,25-31.2
	c5.9-21.8-4.7-41.1-8.3-47.1C1494,211.9,1485.7,222.6,1486,235.7z"/>
<path class="st15" d="M1521.5,217.6c0.7,4.9,1.9,5.6,3.6,12.4c5.9,23.8-2.3,40.2,1.2,41.7c3.9,1.7,20.9-15.8,24.4-38.8
	c3.8-25.6-10.9-46.2-15.8-52.6C1527.4,189.5,1519.4,202.8,1521.5,217.6z"/>
<path class="st15" d="M1702.9,171.2c-1.7-12.5-3-14.7-4.4-27c-4.2-36.3,3.4-54.5-0.8-55.9c-5.6-1.9-27.2,28.3-28.8,63.7
	c-0.7,14.6,2.3,25.8,3.5,29.9c7.4,25.2,23.8,40.3,31.2,46.3C1705.9,205.4,1704.9,186.2,1702.9,171.2z"/>
<path class="st15" d="M1678.4,14.3c5.9,4.7,5.9,6.7,13.5,14.2c26.7,26.2,54.7,28,54,33.8c-0.8,6.5-37,15.3-69.9,2
	c-36.6-14.7-52.4-50-56.9-61.4C1636.8,0.4,1660.5,0.2,1678.4,14.3z"/>
<path class="st15" d="M1518.6,172.3c-5.4-1.3-6-2.6-13.5-5.2c-26-9-45.1-1.5-46.5-5.6c-1.5-4.5,19.8-21.7,45.8-23.3
	c29-1.7,50.5,16.8,57.1,22.9C1550.6,168.5,1534.9,176.1,1518.6,172.3z"/>
<path class="st15" d="M1591.3,199.4c-1.2-15.6-8-17.3-9.2-34.3c-0.8-10.5,1.5-15.2-0.1-15.8c-3.8-1.4-25.2,24.9-19.5,47.5
	c2,8,5.6,8.5,12.3,26.6c2.7,7.4,4.4,13.4,6.8,13.3c1,0,2.6-1,5.3-10.3C1590,216.2,1592,209.1,1591.3,199.4z"/>
<path class="st15" d="M1546.9,93.8c2.8,1.1,3.5,1.6,13.8,7.2c41.4,22.5,49.1,24.6,48.6,28c-1,6.6-32.4,12.2-61.5,4.1
	c-29-8.1-47.7-27.4-56.9-38.8C1505.2,89.6,1526.1,85.4,1546.9,93.8z"/>
<path class="st15" d="M1610.3,174.2c0.9,6.6,2.5,7.5,4.8,16.6c8,32-3.1,54.1,1.6,56.1c5.3,2.3,28.1-21.3,32.8-52.2
	c5.2-34.4-14.6-62.1-21.2-70.7C1618.3,136.4,1607.6,154.3,1610.3,174.2z"/>
<path class="st15" d="M1761.8,138.3c1.9-12.5,1.3-15,3.4-27.2c6.3-36,18.7-51.3,15.1-53.9c-4.8-3.4-34.1,19.5-45.7,52.9
	c-4.8,13.8-5.1,25.4-5.2,29.7c-0.1,26.2,11.4,45.4,16.8,53.2C1755,172,1759.5,153.3,1761.8,138.3z"/>
<path class="st15" d="M1771.4-16.9c7.2,9.3,7.1,15.2,18.9,29.9c16.1,19.9,28.7,24.6,27.2,28.1c-2.6,6.1-44.9,2.3-70.3-23.9
	c-5.9-6.1-4.4-6.7-16.5-21.7c-23.1-28.5-35.1-34.4-33.2-38.5C1701.1-50.4,1749-45.9,1771.4-16.9z"/>
<path class="st15" d="M1839.4,139.5c-1.8-14.8-3.3-17.4-4.7-31.9c-4.4-42.8,4-64.3-0.5-66c-6.2-2.3-30.2,33.6-32.2,75.3
	c-0.8,17.3,2.3,30.4,3.6,35.2c8,29.7,26.1,47.4,34.2,54.4C1842.6,179.8,1841.6,157.2,1839.4,139.5z"/>
<path class="st15" d="M1857.9-41.5c1.4,2.6,1.6,3.5,5.5,14.8c15.9,45.1,20.7,51.6,17.3,54.6c-6.5,5.7-38-7-55.9-31.4
	c-17.8-24.3-17.1-53.3-15.2-69.5C1826.1-69.5,1847.5-61.5,1857.9-41.5z"/>
<path class="st15" d="M1921.3,129.9c1.5-9.8,0.1-11.3,1.1-25c3.5-47.9,23.9-79.2,19.6-82.8c-4.8-3.9-38.5,28.4-55.2,73.4
	c-18.6,50.1-7.8,93-3.9,106.2C1898.3,184.7,1916.8,159.5,1921.3,129.9z"/>
<path class="st16" d="M170.9,723.7c2.3,1-2.8,15.9-0.5,16.8c1.3,0.5,4.4-3.8,6.2-7.7c2.9-6.3,1.2-8.9,4.1-14.4
	c1.1-2.1,3.7-7,7.7-7.4c4.5-0.4,6.8,5.5,10.1,4.7c3-0.8,3-6.7,4.9-12.8c3.9-12.4,14.8-22,17.7-20.6c3,1.5,1,16.7-6.5,28.8
	c-5.8,9.5-14.3,15.7-13.6,16.5c0.6,0.8,7-5,8.6-3.7c2,1.7-3.4,16.7-15.3,22.7c-7.8,4-16.3,3-16.4,4.7c-0.1,1.7,8.1,2,9.1,5.1
	c1,3.2-6,10.2-38.6,26.1c0-5.4,0.5-13.2,2.8-22.1C156.3,739.4,168.4,722.6,170.9,723.7z"/>
<path class="st16" d="M113,755c2.5,0.1,3.1,15.9,5.6,15.8c1.4,0,2.7-5.1,2.9-9.5c0.4-6.9-2.2-8.7-1.4-14.9c0.3-2.3,0.9-8,4.5-9.8
	c4.1-2.1,8.5,2.6,11.1,0.7c2.5-1.8,0.3-7.3-0.1-13.7c-0.9-12.9,5.6-26,9-25.7c3.4,0.2,7,15.2,4.4,29.2c-2,11-7.5,19.8-6.6,20.3
	s4.7-7.2,6.6-6.6c2.5,0.8,2.9,16.8-5.8,26.8c-5.8,6.5-14.1,8.8-13.6,10.5c0.5,1.7,8.3-1,10.3,1.4c2.1,2.6-1.9,11.7-26.5,38.3
	c-1.9-5-4.3-12.5-5.5-21.6C105.1,775,110.2,754.9,113,755z"/>
<path class="st16" d="M84.7,781.4c1.4-1.1,9.3,7.1,10.6,5.9c0.7-0.7-1-4.1-2.9-6.5c-3.1-4-5.3-3.7-8-7.4c-1-1.4-3.3-4.7-2.2-7.4
	c1.2-3.1,5.8-2.6,6.3-4.8s-3.3-4.1-6.5-7.4c-6.6-6.6-9.3-16.8-7.4-18.2c1.9-1.5,11.1,4.9,16.3,13.7c4.1,6.8,5.3,14.4,6.1,14.2
	c0.7-0.2-0.9-6.2,0.4-6.7c1.7-0.7,9.6,7.7,9.6,17.3c0,6.3-3.5,11.5-2.4,12.2c1.1,0.7,4-4.5,6.2-4.1c2.4,0.4,4.5,7.2,3.9,33.4
	c-3.4-1.8-8.3-4.7-13.3-9.2C90,796,83.1,782.7,84.7,781.4z"/>
<path class="st16" d="M52.2,813c-0.3-3.8,9.2-5.4,9.5-11c0.2-4.5-5.6-8.6-7.8-10.1c-6.4-4.4-11.1-3.2-12.4-6.6
	c-1.2-3.3,1.6-8.4,4.6-9c2.3-0.5,3.4,1.9,6.4,1.7c2.8-0.2,5.8-2.6,6.1-4.9c0.2-2-1.6-4.7-13.2-10.8c-15.8-8.3-22.9-8.9-22.7-11
	c0.2-3.3,19.7-9.3,31.7-1c6.5,4.6,9.7,12.8,11.7,12c1.9-0.8-0.3-7.7,1.2-8.4c1.9-0.7,10.5,9.3,11.1,21.5c0.5,9.2-3.6,16.5-1.1,18
	c1.7,1,3.8-2.2,6.5-1.5c5.2,1.4,6,15.2,5.6,22.9c-0.4,7.4-2,13.5-3.5,17.5c-3.2-2.8-8.4-6.8-15.3-10.3
	C60.5,817.3,52.5,816.5,52.2,813z"/>
<path class="st16" d="M-11.3,809.8c1.2-2.1,15.6,4.5,16.6,2.3c0.6-1.2-3.3-4.8-7-6.9c-6-3.6-8.8-2.1-13.9-5.6
	c-1.9-1.3-6.6-4.5-6.6-8.6c0-4.6,6.2-6.2,5.7-9.5c-0.4-3.1-6.3-3.7-12.2-6.2c-11.9-5.2-20.4-17-18.7-19.7c1.8-2.9,16.7,0.8,27.9,9.5
	c8.8,6.8,14.1,15.9,15,15.3c0.8-0.5-4.2-7.5-2.8-9c1.9-1.8,16.3,5.2,21,17.6c3.1,8.3,1.2,16.5,3,16.9c1.7,0.3,2.9-7.8,6-8.5
	c3.3-0.7,9.5,7,21.8,41.2c-5.3-0.6-13.1-1.9-21.7-5.1C2.8,826-12.7,812.2-11.3,809.8z"/>
<path class="st16" d="M57.2,825.7c0.3-1.2,7.8,0.3,8.2-0.8c0.1-0.7-2.1-1.9-4.1-2.5c-3.2-1-4.3,0-7.2-1c-1.1-0.4-3.6-1.3-4.1-3.2
	c-0.5-2.2,2.2-3.7,1.6-5.1c-0.6-1.4-3.4-1-6.5-1.5c-6.2-1.1-11.6-5.6-11.2-7.1c0.5-1.6,8-1.6,14.3,1.2c4.9,2.2,8.6,5.8,8.9,5.4
	s-2.9-3-2.4-3.9c0.7-1.1,8.3,0.5,12,5.8c2.4,3.5,2.5,7.6,3.4,7.6c0.9-0.1,0.5-4,1.9-4.7c1.5-0.7,5.3,2.2,15.1,16.9
	c-2.6,0.3-6.3,0.6-10.9,0.1C65.7,831.8,56.9,827,57.2,825.7z"/>
<path class="st16" d="M1176.4,156.6c-1.1,0.3-3.9-7.5-5-7.1c-0.6,0.2-0.3,3,0.3,5.1c1,3.5,2.3,4,3,7.2c0.3,1.2,0.9,4.1-0.3,5.5
	c-1.4,1.6-4-0.1-4.8,1.2c-0.8,1.3,1,3.7,2.3,6.8c2.5,6.3,1.8,13.9,0.4,14.2c-1.5,0.4-5.5-6.6-6.6-14c-0.9-5.7,0-11.1-0.5-11.2
	c-0.4-0.1-0.8,4.3-1.7,4.3c-1.2-0.1-4-8.1-1.9-14.3c1.4-4.1,4.6-6.4,4.1-7.2c-0.5-0.8-3.3,1.7-4.6,0.7c-1.3-1-1.1-6.1,5-23
	c1.7,2.2,3.9,5.6,5.9,10.1C1176.5,145.4,1177.6,156.2,1176.4,156.6z"/>
<path class="st16" d="M1197.4,96.1c-0.7,1.5-10.6-2.6-11.3-1.1c-0.4,0.9,2.3,3.1,4.9,4.5c4.1,2.3,5.9,1.2,9.5,3.4
	c1.3,0.8,4.6,2.8,4.6,5.5c0.1,3.1-4,4.3-3.6,6.5c0.4,2,4.3,2.3,8.4,3.9c8.2,3.2,14.1,11,13.1,12.9c-1.1,2-11.3-0.1-19-5.7
	c-6-4.4-9.9-10.4-10.5-10c-0.5,0.4,3,4.9,2.1,5.9c-1.2,1.3-11.1-3.1-14.6-11.3c-2.3-5.4-1.2-11.1-2.4-11.3c-1.2-0.2-1.7,5.3-3.8,5.8
	c-2.2,0.5-6.5-4.5-15.7-27.2c3.6,0.3,8.9,1,14.7,2.9C1187.6,85.5,1198.3,94.4,1197.4,96.1z"/>
<path class="st16" d="M1189.2,78.6c0,1.1-7.3,1.7-7.2,2.8c0,0.6,2.4,1.2,4.4,1.2c3.2,0.1,4-1.1,6.9-0.9c1.1,0.1,3.7,0.3,4.6,1.9
	c1,1.9-1.1,3.9-0.2,5.1c0.9,1.1,3.4,0.1,6.3-0.2c6-0.6,12.2,2.3,12.1,3.8c-0.1,1.6-6.9,3.5-13.5,2.5c-5.1-0.8-9.4-3.2-9.6-2.8
	c-0.2,0.4,3.4,2.1,3.2,3c-0.4,1.2-7.7,1.6-12.6-2.3c-3.1-2.6-4.2-6.4-5-6.1c-0.8,0.3,0.6,3.8-0.5,4.8c-1.2,1-5.4-0.7-18.2-11.8
	c2.3-1,5.7-2.2,10-2.8C1179.7,75.1,1189.2,77.3,1189.2,78.6z"/>
<path class="st16" d="M1195.8,35.9c2.1,2.3-3.2,8.1-0.6,11.8c2.1,3,7.8,2.7,10.1,2.5c6.3-0.4,8.8-3.4,11.3-1.9
	c2.4,1.5,3.1,6.1,1.5,8.1c-1.3,1.5-3.1,0.4-4.9,2.1c-1.7,1.5-2.5,4.5-1.4,6.2c0.9,1.4,3.4,2.2,13.9,0.3c14.3-2.5,19.1-5.7,20.1-4.3
	c1.5,2.2-8.1,15.8-19.8,16.4c-6.5,0.3-12.6-3.3-13.5-1.8c-0.8,1.4,4,4.8,3.4,5.9c-0.9,1.4-11.4-0.7-17.8-8.3
	c-4.8-5.6-5.9-12.4-8.4-12.2c-1.6,0.2-1.3,3.3-3.4,4.2c-4,1.7-11.5-6.7-15.1-11.9c-3.5-4.9-5.4-9.7-6.4-13c3.5,0.2,8.8,0.2,14.9-1
	C1188.4,37.3,1193.9,33.8,1195.8,35.9z"/>
<path class="st16" d="M1247.2-6.7c0.4,2.4-15.1,5.9-14.6,8.4c0.3,1.4,5.5,1.7,9.9,1.2c6.9-0.9,8.2-3.7,14.4-4.1
	c2.3-0.2,8.1-0.5,10.5,2.6c2.8,3.6-1,8.8,1.3,11c2.2,2.1,7.2-1,13.5-2.5c12.6-3.2,26.6,0.9,26.9,4.1c0.4,3.3-13.7,9.7-27.9,9.7
	c-11.1,0-20.9-3.9-21.2-2.8c-0.3,0.9,8.1,3.3,7.7,5.3c-0.4,2.6-16,5.9-27.4-1c-7.5-4.5-11.2-12.3-12.7-11.5c-1.5,0.8,2.5,8,0.4,10.4
	c-2.2,2.6-11.8,0.3-42.5-19.1c4.6-2.8,11.5-6.5,20.3-9.3C1226.1-10.9,1246.7-9.5,1247.2-6.7z"/>
<path class="st16" d="M1194.9,33.7c0.5,1.1-6.4,4.6-5.9,5.6c0.3,0.6,2.8,0.2,4.8-0.6c3.2-1.2,3.4-2.7,6.3-3.6c1.1-0.3,3.7-1.2,5.2,0
	c1.7,1.4,0.5,4.2,1.9,5c1.3,0.8,3.3-1.3,6-2.8c5.5-2.9,12.7-2.7,13.2-1.2c0.6,1.5-5.3,6.1-12.1,7.8c-5.2,1.3-10.4,0.6-10.4,1.1
	c0,0.5,4.1,0.6,4.2,1.6c0.1,1.3-6.8,4.6-13.1,2.7c-4.1-1.3-6.7-4.5-7.3-3.9c-0.6,0.6,2.1,3.4,1.4,4.8c-0.7,1.5-5.5,1.5-22.3-4
	c1.8-1.9,4.6-4.4,8.5-6.7C1184.4,34.2,1194.3,32.4,1194.9,33.7z"/>
<path class="st16" d="M1202.3,151.5c-1,1.4-10.6-4.3-11.6-2.8c-0.5,0.8,1.9,3.6,4.4,5.4c3.9,3,5.9,2.1,9.4,4.9
	c1.3,1.1,4.3,3.6,3.9,6.5c-0.4,3.2-4.8,4-4.8,6.3c0.1,2.2,4.1,3,8.2,5.3c8,4.5,13,13.5,11.6,15.3c-1.5,1.9-11.7-1.7-18.9-8.8
	c-5.6-5.4-8.7-12.3-9.4-11.9c-0.6,0.3,2.4,5.6,1.3,6.5c-1.5,1.1-11.1-4.8-13.4-14c-1.6-6,0.5-11.8-0.8-12.2
	c-1.2-0.3-2.7,5.3-4.9,5.5c-2.4,0.2-6.1-5.6-12.1-30.7c3.7,0.8,9.1,2.3,14.9,5.2C1193.8,139,1203.6,149.9,1202.3,151.5z"/>
<path class="st16" d="M1775.6,786.6c-2.3,0.7-0.3,11-2.7,11.7c-1.3,0.4-3.5-2.5-4.4-5.1c-1.6-4.3,0.6-6.1-1.2-10
	c-0.7-1.4-2.2-4.8-6-4.9c-4.2-0.1-7.6,4-10.5,3.6c-2.7-0.4-1.6-4.5-2.3-8.8c-1.4-8.5-9.9-14.9-13-13.8c-3.2,1.1-4.1,11.7,0.7,19.8
	c3.8,6.3,10.7,10.5,9.9,11.1c-0.7,0.5-5.7-3.3-7.4-2.3c-2.2,1.2,0.1,11.6,10.3,15.3c6.7,2.5,15,1.5,14.8,2.8
	c-0.2,1.2-8.1,1.7-9.6,3.8c-1.6,2.3,3.8,6.9,31.9,16.8c1-3.7,2-9.2,1.5-15.3C1786.5,797.1,1778.3,785.8,1775.6,786.6z"/>
<path class="st16" d="M1818.8,771.9c-2.5-0.2-4.6,15.5-7.1,15.2c-1.4-0.2-2.2-5.4-2-9.7c0.3-6.9,3-8.5,2.8-14.7
	c0-2.3-0.1-8.1-3.5-10.2c-3.8-2.4-8.7,1.8-11.1-0.3c-2.3-2,0.4-7.3,1.4-13.7c2.1-12.8-3.2-26.4-6.4-26.5c-3.4-0.1-8.5,14.5-7.2,28.6
	c1,11.1,5.6,20.5,4.7,20.9s-4-7.6-5.9-7.2c-2.5,0.6-4.5,16.5,3.3,27.2c5.1,7.1,13.2,10.1,12.5,11.7c-0.7,1.6-8.2-1.8-10.4,0.5
	c-2.4,2.4,0.7,11.8,22.7,40.7c2.4-4.8,5.4-12,7.5-21C1824.7,792.7,1821.6,772.1,1818.8,771.9z"/>
<path class="st16" d="M1846.5,801.7c-1.3-1.3-10,6.2-11.1,4.9c-0.7-0.7,1.4-4,3.5-6.2c3.5-3.7,5.6-3.2,8.6-6.6
	c1.1-1.3,3.7-4.4,2.9-7.2c-0.9-3.2-5.5-3.1-5.8-5.4c-0.3-2.2,3.7-3.8,7.2-6.7c7.2-5.9,10.9-15.8,9.1-17.4
	c-1.8-1.6-11.5,3.8-17.5,12.1c-4.7,6.4-6.6,13.8-7.4,13.6c-0.7-0.2,1.5-6,0.2-6.7c-1.7-0.9-10.3,6.8-11.2,16.4
	c-0.6,6.3,2.4,11.8,1.2,12.3c-1.1,0.5-3.5-4.8-5.8-4.6c-2.4,0.2-5.2,6.7-7,32.9c3.6-1.5,8.7-3.9,14.1-7.8
	C1839.9,815.8,1847.9,803.1,1846.5,801.7z"/>
<path class="st16" d="M1882.9,834c0.7-3.8-8.7-6.2-8.4-11.9c0.2-4.5,6.4-8,8.8-9.3c6.8-3.8,11.4-2.2,12.9-5.4
	c1.5-3.1-0.8-8.5-3.8-9.4c-2.3-0.7-3.6,1.6-6.5,1.1c-2.7-0.5-5.5-3.1-5.6-5.5c0-2,2-4.5,14.2-9.5c16.5-6.7,23.6-6.6,23.7-8.8
	c0.1-3.3-18.8-11.2-31.4-3.9c-7,3.9-10.9,11.8-12.8,10.8c-1.8-0.9,1-7.7-0.4-8.4c-1.8-0.9-11.3,8.3-13.1,20.4
	c-1.3,9.1,2,16.8-0.6,18.1c-1.8,0.8-3.5-2.5-6.3-2.1c-5.3,0.9-7.4,14.6-7.7,22.2c-0.3,7.4,0.8,13.6,1.8,17.7c3.5-2.5,9-6,16.2-8.8
	C1874.2,837.5,1882.3,837.4,1882.9,834z"/>
<path class="st16" d="M1949.1,850.6c-1-2.3-15.9,3-16.8,0.7c-0.5-1.3,3.7-4.4,7.6-6.3c6.3-3,8.9-1.3,14.4-4.2c2.1-1.1,7-3.8,7.3-7.8
	c0.4-4.5-5.5-6.8-4.8-10c0.7-3,6.6-3,12.8-5.1c12.3-4,21.9-15,20.4-17.9c-1.5-3-16.7-0.8-28.7,6.8c-9.4,5.9-15.6,14.5-16.4,13.8
	c-0.8-0.6,4.9-7.1,3.6-8.7c-1.7-2-16.7,3.6-22.5,15.5c-3.9,7.8-2.8,16.4-4.6,16.5c-1.7,0.1-2.1-8.1-5.2-9c-3.2-1-10.2,6.1-25.7,38.9
	c5.4-0.1,13.2-0.7,22.1-3C1933.5,865.4,1950.2,853.2,1949.1,850.6z"/>
<path class="st16" d="M1881.2,844c-0.2-1.2-7.8-0.4-8.1-1.6c-0.1-0.7,2.3-1.6,4.3-2.1c3.3-0.7,4.3,0.4,7.2-0.3
	c1.1-0.3,3.8-1,4.4-2.8c0.7-2.1-1.8-3.8-1.1-5.2c0.7-1.3,3.5-0.7,6.6-0.9c6.2-0.5,12.1-4.5,11.8-6c-0.4-1.6-7.8-2.3-14.4-0.1
	c-5.1,1.7-9.1,5-9.4,4.6c-0.3-0.4,3.2-2.8,2.7-3.6c-0.6-1.1-8.3-0.2-12.5,4.7c-2.8,3.2-3.2,7.4-4.1,7.2c-0.8-0.1-0.1-4-1.4-4.8
	c-1.4-0.8-5.5,1.7-16.6,15.4c2.6,0.6,6.3,1.2,10.8,1.1C1872.2,849.1,1881.5,845.3,1881.2,844z"/>
<path class="st16" d="M1734.4,795.3c-1.1,2.2,12.4,10.5,11.1,12.6c-0.7,1.2-5.8-0.1-9.7-2c-6.3-3-6.5-6.1-12.4-8.6
	c-2.2-0.9-7.4-3.1-10.8-0.8c-3.8,2.6-1.8,8.7-4.7,10.1c-2.8,1.3-6.5-3.2-12-6.7c-10.9-7-25.5-7.6-26.8-4.6
	c-1.4,3.1,9.9,13.5,23.3,18c10.6,3.5,21,3,21,4s-8.7,0.6-9,2.5c-0.5,2.6,13.3,10.7,26.3,7.8c8.6-1.9,14.5-8.2,15.7-6.8
	c1.2,1.3-4.9,6.7-3.7,9.7c1.3,3.1,11.1,4,46.4-4.5c-3.4-4.1-8.8-9.9-16.3-15.3C1755.8,798,1735.7,792.8,1734.4,795.3z"/>
<path class="st10" d="M1413.4,828.4c3.4,4.6,2.9,6,7,13c14.1,24.2,34,31.1,32.3,35.1c-1.8,4.5-29.7,3.7-50.9-12.3
	c-23.6-17.9-28-46.5-29-55.6C1386.1,810.1,1403.3,814.6,1413.4,828.4z"/>
<path class="st10" d="M1477.4,829.9c0.2,6.1-1.1,7.2-1.7,15.8c-2.2,30.2,11.3,48.5,7.3,51.1c-4.4,2.9-28.8-14.9-37.8-42.2
	c-10-30.4,3.5-58.6,8.2-67.3C1464.2,796.9,1476.8,811.5,1477.4,829.9z"/>
<path class="st10" d="M1509.7,887.5c-0.9-7,0.5-8.3,0.2-18.2c-0.8-34.7-18.2-54.1-14-57.5c4.7-3.8,34.5,13.8,47.8,44
	c14.8,33.5,2.4,67.2-1.9,77.7C1528.3,923.7,1512.4,908.5,1509.7,887.5z"/>
<path class="st10" d="M1823.8,945.5c2,16.6-2.4,23.6,1.3,50.1c5.1,35.9,17,50.7,12.6,53.9c-7.6,5.5-56.2-29.9-68.1-80.3
	c-2.8-11.7-0.5-11.3-4.3-38.3c-7.3-51.5-17.7-67.4-12.4-70.9C1762.6,853.6,1817.7,893.9,1823.8,945.5z"/>
<path class="st10" d="M1435,886.5c-6,1.4-6.6,2.9-14.9,5.7c-28.7,9.8-49.8,1.4-51.3,5.8c-1.7,5,21.7,24.1,50.4,25.9
	c31.9,2,55.8-18.2,63.1-25C1470.3,890.9,1453,882.4,1435,886.5z"/>
<path class="st10" d="M1486.6,935.5c-6.2,3.3-6.5,5.2-14.7,10.9c-28.6,19.7-54.5,16.9-54.8,22.3c-0.3,6,31.4,19.9,63.6,13.1
	c35.9-7.6,56-37.3,61.9-47C1526.9,929.5,1505.2,925.4,1486.6,935.5z"/>
<path class="st10" d="M1761.4,1141.3c6.3-8.6,5.5-11.4,13.2-24.5c26.7-45.8,64.2-58.7,61.1-66.4c-3.5-8.7-56.2,5.8-96.3,23.3
	c-23.9,10.5-30.4,16.3-33,18.9c-28.1,27.5-23.8,71.9-21.9,86.3C1709.7,1175.9,1742.2,1167.4,1761.4,1141.3z"/>
<path class="st10" d="M1914.1,951.2c0.2,10.7-2.1,12.5-3.4,27.6c-4.5,52.8,18.7,85,11.8,89.5c-7.7,5-50.1-26.6-65.3-74.5
	c-17-53.3,7.3-102.3,15.7-117.6C1891.8,893.2,1913.5,918.8,1914.1,951.2z"/>
<path class="st17" d="M2019.8,1079.2c-81.3-6-193-23-317.9-70.1c-108.4-40.9-193.5-92.1-254.8-135.4"/>
<path class="st17" d="M-51,925.3c15.1,11.3,93.2,67.1,201.4,51.8c100.4-14.1,158.2-79.8,171.5-95.7"/>
<path class="st17" d="M874.3,151.6c18.7-30,67.5-99.1,159.5-143.6c79.5-38.5,152.1-39.7,187.5-37.9"/>
<path class="st17" d="M88.6,229.3c-17.1-5.4-42.3-16-65.8-37.9C-33.9,138.6-33.4,64.2-33.1,49.9"/>
<path class="st10" d="M1579.6,921c-1-7.8,0.5-9.3,0.3-20.5c-0.9-38.9-20.4-60.6-15.7-64.4c5.3-4.3,38.7,15.5,53.6,49.3
	c16.6,37.6,2.7,75.4-2.2,87.1C1600.5,961.6,1582.7,944.5,1579.6,921z"/>
<path class="st10" d="M1551.7,1009.7c20.1-9.3,18.9-19.2,40.9-29.2c13.6-6.2,20.9-5.6,20.9-7.9c0-5.8-45.5-21.1-72.8-2.3
	c-9.6,6.6-8.5,11.6-29.2,29.5c-8.4,7.3-15.6,12.4-14.3,15.6c0.5,1.3,2.7,3,16.3,2C1528.8,1016.3,1539.2,1015.5,1551.7,1009.7z"/>
<path class="st10" d="M1713.4,916.2c1,4.1,1,5.4,2.9,21.9c7.9,66.3,11.8,77,7.4,79.2c-8.4,4.3-40.6-27.4-55.1-67.8
	c-14.5-40.2-7.4-77.5-1.8-97.5C1684.2,864.6,1706.2,885.3,1713.4,916.2z"/>
<path class="st10" d="M1650.7,1019.1c-8.3,4.5-8.7,7-19.7,14.6c-38.5,26.5-73.3,22.7-73.7,30c-0.5,8.1,42.2,26.8,85.6,17.6
	c48.2-10.2,75.2-50.2,83.3-63.2C1704.8,1010.9,1675.7,1005.5,1650.7,1019.1z"/>
<path class="st10" d="M1816.2,1114c9.6-4.8,12.2-3.5,26.4-8.9c49.6-18.7,68.6-53.6,75.6-49.3c7.9,4.8-2.4,56.6-39,91.1
	c-40.7,38.3-95.5,37.6-112.8,36.7C1773.5,1159.2,1787.3,1128.6,1816.2,1114z"/>
<path class="st18" d="M338.1,835.1c-1.5,4.5-0.8,5.5-2.3,12.1c-5.2,22.8-19.3,33.2-17,36.1c2.6,3.1,24.6-4.4,37.5-22.5
	c14.3-20.1,10.7-44.1,9.3-51.6C355.3,813.7,342.7,821.6,338.1,835.1z"/>
<path class="st18" d="M286.5,848.1c1.4,4.9,2.7,5.4,5.3,12.2c9.3,23.5,3.1,41.5,6.9,42.6c4.2,1.2,19.3-19.1,19.6-43.1
	c0.4-26.7-17.4-45.8-23.3-51.7C288.7,818.5,282.3,833.3,286.5,848.1z"/>
<path class="st18" d="M279,886c-1-5.8-2.4-6.5-4.7-14.5c-8-27.9,1-47.7-3.2-49.3c-4.7-1.9-24.1,19.6-27.2,47
	c-3.4,30.4,14.8,54.2,20.9,61.5C273.2,919.5,282.1,903.4,279,886z"/>
<path class="st18" d="M323.5,896.1c5.1-0.4,6,0.6,13.3,0.8c25.3,0.7,40-11.3,42.3-8.1c2.6,3.6-11.3,24.6-33.7,33.2
	c-24.9,9.6-49-0.6-56.5-4.2C296.4,908.3,308.1,897.3,323.5,896.1z"/>
<path class="st18" d="M294.3,940.6c5.5,2,6,3.5,13.4,7.2c26,12.8,47.1,7.4,48,11.8c1,4.9-23.5,20.2-51,18.5
	c-30.6-2-50.8-24.1-56.9-31.4C260.2,940.5,277.6,934.5,294.3,940.6z"/>
<path class="st18" d="M-7.2,847.5c-0.5,8.9,1.3,10.5,1.9,23.2c2.1,44.2-18.3,70.4-12.6,74.3c6.3,4.4,42.6-20.6,56.8-60.2
	c15.8-44-2.9-85.7-9.4-98.6C13.2,799.8-5.7,820.6-7.2,847.5z"/>
<path class="st18" d="M228.9,908.1c-1.6-7.7-2.7-7.1-5.3-16.2c-9-31.3,1.1-53.4-3.6-55.3c-5.3-2.1-27,22-30.4,52.7
	c-3.9,34.1,16.6,60.8,23.5,68.9c1.9,0.7,3.4,0.6,4.4,0.4C227.7,956.4,233.4,930.3,228.9,908.1z"/>
<path class="st18" d="M223.6,1010.9c-15.3-10.4-13-18.4-29.7-29.7c-10.4-7-16.5-7.5-16.1-9.4c0.8-4.8,40.4-11.1,60.3,8.1
	c7,6.8,5.4,10.8,20,28.3c6,7.2,11.1,12.4,9.6,14.8c-0.6,1-2.6,2.1-13.7-0.6C241.6,1019.4,233.1,1017.4,223.6,1010.9z"/>
<path class="st18" d="M127.7,893.8c-0.1,3.5,0.1,4.5,1.4,18.4c4.9,55.5,3.7,65,7.6,66c7.6,2.1,28.4-29.4,33.4-64.9
	c4.9-35.3-7.3-64.6-15.3-80C142.7,846.5,128.3,867.3,127.7,893.8z"/>
<path class="st18" d="M147.7,1004.2c5.1,6,4.6,8.1,10.9,17.4c21.8,32.3,50,40.1,48.1,45.8c-2.1,6.4-41,7.9-71.9-12.5
	c-34.4-22.7-43.1-62.1-45.4-74.6C108.1,981.3,132.4,985.9,147.7,1004.2z"/>
<path class="st18" d="M2.3,1030.1c-3.5-8.2-5.9-8.8-12.1-19.9c-21.6-38.6-15.1-71.1-21.9-72.2c-7.6-1.1-28.9,37.5-24,79.2
	c5.5,46.4,40.8,75.4,52.4,84.1C5.3,1082,12.9,1055,2.3,1030.1z"/>
<path class="st18" d="M72.6,1011.7c2.5,7.5,1.3,9.2,3.7,20.2c8.5,38.1,31.9,55.6,28.1,60.3c-4.3,5.2-41-7.6-62.4-37.9
	c-23.7-33.7-17.5-73.5-15-86.1C44.1,975.9,65,989.2,72.6,1011.7z"/>
<path class="st18" d="M63.3,874.8c0,14.9,2.8,18.1,3.3,33.2c1.3,37.7-14.6,59.5-10.2,62.2c5.3,3.2,37.8-22.6,44.7-59.7
	c7.5-40.8-18.3-75.7-27-86.5C69.1,835.7,63.3,853.2,63.3,874.8z"/>
<g>
	<path class="st17" d="M1155.5,1118.8c-45-11-146.5-42.4-237.3-133.6c-77.3-77.7-110-161.6-123.6-205.4"/>
	<path class="st19" d="M805.1,720c-2.9-0.1-4.9,18.1-7.7,17.9c-1.6-0.2-2.7-6.1-2.7-11.2c0.1-8.2,3.2-9.9,2.9-17.2
		c-0.1-2.7-0.5-9.3-4.4-11.6c-4.5-2.7-10,2.3-12.9-0.1c-2.7-2.3,0.2-8.6,1.2-15.9c2-14.9-4.5-30.5-8.3-30.5
		c-3.9,0.1-9.3,17.1-7.5,33.5c1.4,12.8,7.3,23.6,6,24.1c-1,0.5-4.9-8.8-7.1-8.2c-3,0.8-4.7,19.3,4.7,31.5
		c6.2,8.1,15.7,11.3,14.9,13.2s-9.5-1.9-12,0.9c-2.6,2.9,1.2,13.6,27.6,46.6c2.6-5.7,6-14.1,8.1-24.7
		C812.6,743.7,808.3,720.1,805.1,720z"/>
	<path class="st19" d="M858.4,769.1c-2.2-1.8-14.9,11.5-17,9.5c-1.2-1.1,1.6-6.6,4.6-10.5c5-6.5,8.6-5.9,12.7-11.9
		c1.6-2.3,5.3-7.7,3.6-11.9c-2-4.9-9.3-4.2-10.2-7.8c-0.9-3.6,5.3-6.6,10.5-12c10.7-10.7,14.9-27,11.9-29.3
		c-3.1-2.3-17.7,7.9-26.2,22.1c-6.6,11.1-8.5,23.1-9.7,22.9c-1.1-0.2,1.4-9.9-0.7-10.8c-2.9-1.2-15.4,12.5-15.4,27.9
		c0,10.2,5.6,18.4,3.9,19.5s-6.5-7.2-10.1-6.5c-3.9,0.7-7.3,11.6-6.2,53.7c5.5-2.9,13.3-7.6,21.3-14.7
		C850.1,792.7,860.9,771.3,858.4,769.1z"/>
	<path class="st19" d="M862.9,813.9c-0.3-2-13.6-0.9-13.8-2.9c-0.2-1.2,4-2.9,7.6-3.5c5.8-1.1,7.5,0.9,12.6-0.4
		c1.9-0.5,6.5-1.7,7.6-4.8c1.2-3.6-3.1-6.7-1.8-9.1c1.2-2.3,6.1-1.1,11.4-1.5c10.8-0.7,20.9-7.6,20.4-10.2
		c-0.6-2.7-13.4-4.1-24.8-0.5c-8.9,2.9-15.6,8.5-16.2,7.7c-0.5-0.6,5.5-4.7,4.8-6.3c-0.9-1.9-14.3-0.5-21.6,7.8
		c-4.8,5.6-5.7,12.7-7.2,12.4s0-7-2.3-8.3c-2.5-1.5-9.5,2.9-29,26.3c4.4,1.1,10.8,2.2,18.6,2.2C847.1,822.7,863.3,816.3,862.9,813.9
		z"/>
	<path class="st19" d="M977.2,984.5c4-4.3-5.6-11-0.7-17.6c3.9-5.3,14.7-6.9,18.6-7.5c11.7-1.7,16,2,20.7-1.1
		c4.6-3.2,5.9-10.5,3-12.7c-2.2-1.8-5.9,0.5-9.1-1.4c-3.1-1.7-4.4-6-2.5-8.9c1.7-2.5,6.3-4.6,25.7-5.5c26.3-1.2,35.3,1.7,37.1-0.6
		c3-3.9-14.3-21-36.2-17.7c-12.1,1.9-23.4,9.6-25.1,7.6c-1.4-1.9,7.7-8.8,6.4-10.1c-1.5-1.8-20.9,5.1-33.2,18.9
		c-9.1,10.2-11.4,20.9-15.7,21.3c-2.9,0.3-2.3-4.5-6.3-5.1c-7.4-1.2-21.4,14.3-28.3,23.3c-6.6,8.7-10.3,16.5-12.4,21.9
		c6.5-1.6,16.2-3.5,27.5-3.8C963.5,985.2,973.6,988.4,977.2,984.5z"/>
	<path class="st19" d="M1033.1,1036.7c0.4-2.8-17.5-7-16.8-9.8c0.4-1.6,6.4-2,11.4-1.4c8,1,9.5,4.3,16.7,4.9
		c2.7,0.2,9.3,0.7,12.1-3.1c3.3-4.2-1.2-10.1,1.6-12.7c2.6-2.5,8.4,1.2,15.7,3c14.6,3.8,30.9-0.9,31.2-4.7
		c0.5-3.9-15.9-11.3-32.3-11.3c-12.9-0.1-24.2,4.4-24.7,3.2c-0.4-1.1,9.3-3.9,9-6.1c-0.4-3-18.6-6.9-31.8,1
		c-8.8,5.2-13,14.2-14.8,13.2c-1.8-1,3-9.3,0.6-12.1c-2.6-3-13.7-0.3-49.5,22c5.3,3.3,13.3,7.6,23.6,10.9
		C1008.5,1041.4,1032.5,1039.9,1033.1,1036.7z"/>
	<path class="st19" d="M951.7,998.6c0.5-1.3-7.9-4.5-7.4-5.9c0.2-0.7,3.2-0.5,5.6,0.1c3.8,1,4.2,2.8,7.7,3.5c1.3,0.3,4.4,1,6.1-0.7
		c1.9-1.8,0.1-4.9,1.6-6.1c1.4-1.1,4,1.2,7.4,2.5c6.7,2.8,14.9,1.7,15.4-0.1c0.5-1.9-6.9-6.5-14.8-7.7c-6.2-0.9-12,0.5-12.1-0.2
		c-0.1-0.5,4.8-1.2,4.7-2.3c0-1.5-8.5-4.7-15.3-1.7c-4.6,1.9-7.3,6-8.1,5.3c-0.8-0.6,2.1-4.3,1.1-5.8c-1-1.7-6.6-1.2-25.3,7.2
		c2.3,2,5.9,4.6,10.6,6.8C939.6,999.1,951.3,1000.1,951.7,998.6z"/>
	<path class="st19" d="M891.3,860.9c-0.5-2.8-15.2-1.4-15.7-4.2c-0.2-1.6,4.2-3.9,8.1-4.7c6.3-1.5,8.4,1.2,14-0.5
		c2.1-0.6,7.1-2.1,8.1-6.5c1.1-5-4-9.2-2.7-12.6c1.1-3.2,6.7-1.5,12.7-1.8c12-0.9,22.7-10.1,21.9-13.9c-0.9-3.9-15.3-5.9-27.7-0.9
		c-9.6,3.9-16.8,11.6-17.4,10.5c-0.6-0.9,5.8-6.4,4.9-8.5c-1.3-2.8-16-0.9-23.5,10.5c-4.9,7.6-5.3,17.4-7,17.1
		c-1.6-0.4-0.6-9.6-3.3-11.5c-2.8-2-10.4,3.7-30.2,35.7c5,1.5,12.3,3.2,20.9,3.2C874.4,872.8,891.9,864.1,891.3,860.9z"/>
	<path class="st19" d="M941.8,904.5c-1.1-2.7-19.2,3.4-20.1,0.7c-0.5-1.5,4.6-5.2,9.4-7.3c7.7-3.4,10.6-1.4,17.4-4.9
		c2.6-1.3,8.5-4.4,9.1-9.1c0.6-5.3-6.4-8-5.4-11.7c0.9-3.5,8.1-3.5,15.4-5.9c14.9-4.7,26.7-17.3,25.2-20.7c-1.7-3.6-20-1.1-34.5,7.7
		c-11.4,6.9-19.2,16.8-20.1,16c-0.9-0.7,6.3-8.2,4.7-10c-2-2.4-20.1,4.1-27.6,17.9c-5,9.2-3.9,19.1-6.2,19.2
		c-2.1,0.1-2.3-9.5-5.8-10.5c-3.9-1.2-12.4,7.1-32.1,45.2c6.4-0.1,15.7-0.7,26.5-3.3C922.6,921.7,943.1,907.6,941.8,904.5z"/>
	<path class="st19" d="M864,882.6c0.5-1.3-7.9-4.5-7.4-5.9c0.2-0.7,3.2-0.5,5.6,0.1c3.8,1,4.2,2.8,7.7,3.5c1.3,0.3,4.4,1,6.1-0.7
		c1.9-1.8,0.1-4.9,1.6-6.1c1.4-1.1,4,1.2,7.4,2.5c6.7,2.8,14.9,1.7,15.4-0.1c0.5-1.9-6.9-6.5-14.8-7.7c-6.2-0.9-12,0.5-12.1-0.2
		c-0.1-0.5,4.8-1.2,4.7-2.3c0-1.5-8.5-4.7-15.3-1.7c-4.6,1.9-7.3,6-8.1,5.3c-0.8-0.6,2.1-4.3,1.1-5.8c-1-1.7-6.6-1.2-25.3,7.2
		c2.3,2,5.9,4.6,10.6,6.8C851.9,883.2,863.5,884,864,882.6z"/>
	<path class="st19" d="M887.7,897.9c-1.3-0.5-4.5,7.9-5.9,7.4c-0.7-0.2-0.5-3.2,0.1-5.6c1-3.8,2.8-4.2,3.5-7.7
		c0.3-1.3,1-4.4-0.7-6.1c-1.8-1.9-4.9-0.1-6.1-1.6c-1.1-1.4,1.2-4,2.5-7.4c2.8-6.7,1.7-14.9-0.1-15.4c-1.9-0.5-6.5,6.9-7.7,14.8
		c-0.9,6.2,0.5,12-0.2,12.1c-0.5,0.1-1.2-4.8-2.3-4.7c-1.5,0-4.7,8.5-1.7,15.3c1.9,4.6,6,7.3,5.3,8.1c-0.6,0.8-4.3-2.1-5.8-1.1
		c-1.7,1-1.2,6.6,7.2,25.3c2-2.3,4.6-5.9,6.8-10.6C888.3,910.1,889.2,898.3,887.7,897.9z"/>
	<path class="st19" d="M923.6,936.5c0.2-2.1-12.9-4.2-12.7-6.2c0.1-1.2,4.6-1.7,8.2-1.5c5.8,0.3,7,2.7,12.3,2.7c2,0,6.7,0.1,8.6-2.8
		c2.1-3.2-1.3-7.3,0.5-9.2c1.8-1.9,6.1,0.4,11.4,1.4c10.7,2,22.1-2.2,22.2-4.9c0.1-2.8-12-7.3-23.8-6.5c-9.3,0.7-17.3,4.4-17.7,3.6
		c-0.3-0.7,6.6-3.2,6.1-4.9c-0.4-2.1-13.7-4-22.8,2.3c-6.1,4.2-8.7,11-10.1,10.3c-1.4-0.7,1.7-6.8-0.2-8.7c-2-2-9.9,0.4-34.5,18.3
		c4,2.2,10,4.8,17.5,6.7C906.1,941,923.4,938.8,923.6,936.5z"/>
	<path class="st19" d="M1024,1018c-0.3-2-13.6-0.9-13.8-2.9c-0.2-1.2,4-2.9,7.6-3.5c5.8-1.1,7.5,0.9,12.6-0.4
		c1.9-0.5,6.5-1.7,7.6-4.8c1.2-3.6-3.1-6.7-1.8-9.1c1.2-2.3,6.1-1.1,11.4-1.5c10.8-0.7,20.9-7.6,20.4-10.2
		c-0.6-2.7-13.4-4.1-24.8-0.5c-8.9,2.9-15.6,8.5-16.2,7.7c-0.5-0.6,5.5-4.7,4.8-6.3c-0.9-1.9-14.3-0.5-21.6,7.8
		c-4.8,5.6-5.7,12.7-7.2,12.4c-1.5-0.3,0-7-2.3-8.3c-2.5-1.5-9.5,2.9-29,26.3c4.4,1.1,10.8,2.2,18.6,2.2
		C1008.3,1026.8,1024.4,1020.4,1024,1018z"/>
</g>
<path class="st19" d="M880,215.2c-2.9,0-4.2-18.3-7-18.2c-1.6,0.1-2.9,6-3.1,11.1c-0.2,8.2,2.8,10.1,2.2,17.3
	c-0.2,2.7-0.8,9.3-4.8,11.5c-4.6,2.5-9.9-2.7-12.9-0.4c-2.8,2.2-0.1,8.6,0.6,15.9c1.4,15-5.6,30.3-9.5,30.2
	c-3.9-0.2-8.7-17.4-6.2-33.7c1.9-12.8,8.2-23.3,6.9-23.9c-1-0.5-5.2,8.7-7.4,8c-2.9-0.9-3.9-19.4,5.9-31.3
	c6.5-7.8,16.1-10.7,15.4-12.6c-0.7-1.9-9.6,1.5-12-1.3c-2.5-3,1.7-13.6,29.4-45.5c2.4,5.8,5.4,14.3,7.1,25
	C888.5,191.6,883.2,215.2,880,215.2z"/>
<path class="st19" d="M938.5,167c-2.7,1.1-10.7-15.5-13.3-14.3c-1.5,0.7-0.5,6.7,1.2,11.5c2.7,7.6,6.3,8.3,8.4,15.3
	c0.8,2.6,2.7,9-0.3,12.5c-3.4,4.1-10.2,1-12.1,4.3c-1.9,3.1,3,8,6.3,14.6c6.8,13.4,5.8,30.3,2.2,31.5c-3.7,1.3-14.5-13-18.1-29.1
	c-2.8-12.6-1-24.7-2.2-24.8c-1.1-0.1-1.7,10-4,10.1c-3,0.2-10.8-16.6-5.9-31.3c3.2-9.7,11.1-15.8,9.7-17.3
	c-1.3-1.5-8.4,4.8-11.6,3.1c-3.5-1.8-3.3-13.3,10.7-53c4.4,4.5,10.3,11.4,15.7,20.6C937.8,142,941.5,165.8,938.5,167z"/>
<path class="st19" d="M956.6,125.8c-0.9,1.8-13.2-3.3-14-1.5c-0.5,1.1,2.9,3.9,6,5.6c5.1,2.8,7.3,1.5,11.9,4.3
	c1.7,1,5.7,3.6,5.7,6.9c0.1,3.8-5,5.4-4.5,8.2c0.5,2.5,5.4,2.9,10.5,4.9c10.1,4,17.6,13.7,16.2,16c-1.4,2.5-14.1-0.2-23.6-7.1
	c-7.5-5.4-12.3-13-13-12.4c-0.7,0.5,3.8,6.2,2.6,7.4c-1.5,1.6-13.8-3.9-18.1-14.2c-2.9-6.8-1.5-13.9-3-14.1s-2.2,6.6-4.8,7.2
	c-2.8,0.6-8.2-5.6-19.4-33.9c4.5,0.3,11,1.2,18.3,3.7C944.2,112.6,957.6,123.7,956.6,125.8z"/>
<path class="st19" d="M981.6,80.2c2.1,4-7.3,10-5.1,16.1c1.8,4.9,9.9,6.5,12.9,7.1c8.9,1.8,13.3-1.6,16.2,1.4
	c2.8,2.9,2.1,9.7-0.9,11.7c-2.3,1.6-4.5-0.5-7.6,1.1c-2.9,1.5-5,5.4-4.2,8.1c0.7,2.3,3.8,4.3,19,5.4c20.6,1.6,28.5-1,29.3,1.3
	c1.3,3.6-16.8,18.9-33.3,15.5c-9.2-1.9-16.2-9.2-17.9-7.3c-1.6,1.6,3.8,8.2,2.5,9.5c-1.7,1.6-15.4-5.1-21.6-17.9
	c-4.6-9.6-3.7-19.3-7-19.7c-2.2-0.3-3,4-6.2,4.5c-6.1,0.9-13.4-13.5-16.5-21.8c-3-8.1-3.9-15.3-4.2-20.3c4.7,1.6,12,3.5,20.9,4
	C970.8,79.4,979.6,76.6,981.6,80.2z"/>
<path class="st19" d="M1032,40.2c0.3,2.8-17.7,6.3-17.2,9.2c0.3,1.6,6.3,2.2,11.4,1.8c8.1-0.7,9.7-3.9,16.9-4.2
	c2.7-0.1,9.4-0.3,12,3.5c3.1,4.3-1.6,10.1,1.1,12.8c2.5,2.6,8.5-0.9,15.8-2.4c14.7-3.2,30.8,2.1,31,5.8c0.3,3.9-16.3,10.7-32.7,10.1
	c-12.9-0.4-24.1-5.3-24.6-4.1c-0.4,1.1,9.2,4.2,8.8,6.4c-0.5,3-18.8,6.2-31.7-2.2c-8.6-5.5-12.5-14.7-14.3-13.8
	c-1.8,0.9,2.6,9.4,0.1,12.1c-2.7,2.9-13.7-0.2-48.6-23.9c5.4-3.1,13.6-7,24-10C1007.6,34.5,1031.6,37,1032,40.2z"/>
<path class="st19" d="M970.4,68.9c0.2,1.4-8.6,3.2-8.3,4.6c0.2,0.8,3.1,1,5.5,0.8c3.9-0.4,4.6-2,8.2-2.2c1.3-0.1,4.5-0.2,5.8,1.6
	c1.5,2.1-0.7,4.9,0.6,6.2c1.2,1.2,4.1-0.5,7.6-1.3c7.1-1.7,15,0.7,15.2,2.5c0.2,1.9-7.8,5.3-15.8,5.2c-6.2-0.1-11.8-2.3-12-1.8
	c-0.2,0.5,4.5,1.9,4.3,3c-0.2,1.5-9.1,3.2-15.5-0.8c-4.2-2.6-6.2-7-7-6.5c-0.9,0.5,1.3,4.5,0.2,5.8c-1.3,1.4-6.6,0.1-23.9-11.2
	c2.6-1.6,6.5-3.6,11.6-5.1C958.5,66.3,970.2,67.3,970.4,68.9z"/>
<path class="st19" d="M108.3,270.5c-1.2-3.6-0.6-4.5-1.8-9.8c-4.1-18.5-15.5-27-13.7-29.2c2.1-2.5,19.9,3.6,30.3,18.3
	c11.6,16.3,8.6,35.7,7.3,41.8C122.2,288,112.1,281.5,108.3,270.5z"/>
<path class="st19" d="M67.4,271.8c1.1-4,2.2-4.4,4.3-9.9c7.6-19,2.6-33.5,5.7-34.4c3.4-1,15.5,15.5,15.8,34.9
	c0.3,21.6-14.2,37-19,41.8C69.2,295.7,64.1,283.8,67.4,271.8z"/>
<path class="st19" d="M50,234.4c-0.8,4.6-2,5.2-3.9,11.7c-6.5,22.5,0.7,38.5-2.7,39.9c-3.8,1.5-19.4-15.9-21.8-38.1
	c-2.7-24.7,12.2-43.8,17.1-49.7C45.3,207.3,52.6,220.3,50,234.4z"/>
<path class="st19" d="M108.6,232.9c3.9-1.2,4.3-2.2,9.8-4.4c18.9-7.7,33.5-2.9,34.4-6c0.9-3.4-15.6-15.4-35-15.5
	c-21.6-0.1-36.9,14.6-41.6,19.4C84.7,231.4,96.7,236.4,108.6,232.9z"/>
<path class="st19" d="M73.1,206.8c4.5-1.3,5-2.5,11.2-5.1c21.7-9,38.4-3.5,39.3-7c1.1-3.9-17.9-17.6-40.3-17.6
	c-24.8,0-42.3,16.8-47.6,22.4C45.5,205.2,59.3,211,73.1,206.8z"/>
<path class="st19" d="M25.6,116.2c-3.9,2.1-4.1,3.4-9.5,7c-18.4,12.7-34.8,10.1-35,13.7c-0.4,5.2,22.4,18.3,40.2,10.7
	c4.1-1.8,5.9-3.8,12.8-9.7c11.3-9.6,20.8-16.5,27.2-20.7C51.3,113.2,37.6,109.8,25.6,116.2z"/>
<path class="st19" d="M14.8,208.2c-0.9,5.2-2.2,5.8-4.3,13.1c-7.3,25.3,0.7,43.3-3,44.7c-4.2,1.7-21.7-17.9-24.5-42.7
	c-3-27.6,13.6-49.1,19.2-55.8C9.7,177.7,17.6,192.3,14.8,208.2z"/>
<path class="st19" d="M46.4,153.3c-14.9,1.9-16.1,8.6-32.3,10.5C4.1,164.9-0.5,163-1,164.5c-1.2,3.7,25.1,22.8,46.4,16.4
	c7.5-2.3,7.8-5.7,24.9-13.1c6.9-2.9,12.6-4.8,12.4-7.1c-0.1-0.9-1.1-2.5-10.1-4.6C62.5,153.8,55.7,152.2,46.4,153.3z"/>
<path class="st17" d="M1931.1,18.3c-21.2,12.8-48.3,32.6-73.3,62.5c-54.8,65.5-65.7,137.7-68.4,169.4"/>
<path class="st10" d="M1777.2,322.2c-3.5-5.5-13.9-23.1-8.9-43.4c4.4-18.2,19.3-31.1,22.3-29.4c2.6,1.5-5.2,14.1-2.1,33.7
	c0.9,5.6,1.8,6.2,2,10.2C1791.2,305.3,1783.8,315.4,1777.2,322.2z"/>
<path class="st10" d="M1828.6,295.6c-6.5-2.7-26.5-12.2-34.6-33.2c-7.2-19-1.7-39.6,1.9-39.9c3.4-0.3,4.1,15.7,18.8,31.2
	c4.2,4.4,5.4,4.4,8,7.9C1830.7,272,1830.3,285.5,1828.6,295.6z"/>
<path class="st10" d="M1804.2,178.4c7.1,3.8,28.9,16.7,35.7,41.7c6.1,22.4-2.3,45.4-6.6,45.3c-3.9,0.1-3-18.3-18-37.6
	c-4.3-5.6-5.7-5.7-8.3-9.9C1799.1,205.2,1801.1,189.8,1804.2,178.4z"/>
<path class="st10" d="M1941.4,175.7c-4.5,0.5-5.9-12.9-24.9-44.3c-10-16.5-11-15.3-14.7-22.9c-15.9-32.8-5.1-73.8,1.5-74.2
	c3.8-0.3,3.9,13.2,17.1,35.1c9.8,16.2,15.4,18.1,21.7,28C1961.7,128.3,1949.5,175,1941.4,175.7z"/>
<path class="st10" d="M1793.5,218.4c-7-0.4-29.1-0.8-45.7,14.5c-14.9,13.8-19.1,34.7-16,36.6c2.8,1.7,10.6-12.3,30.7-19.7
	c5.8-2.1,6.9-1.6,10.7-3.5C1785,240.6,1790.6,228.3,1793.5,218.4z"/>
<path class="st10" d="M1804.5,181.1c-7.6-2.6-31.8-9.9-54.8,1.9c-20.7,10.7-31.8,32.4-29,35.5c2.6,2.8,15.5-10.3,39.9-12.3
	c7-0.5,7.9,0.3,12.8-0.5C1788.2,202.9,1798.2,191.1,1804.5,181.1z"/>
<path class="st10" d="M1769.1,26.1c5.3,8.7,22.8,35,50.4,37.5c2.6,0.3,8.8,0.6,26.5-4.4c29.8-8.2,65-23.9,63.1-30.1
	c-1.7-5.5-28,4.1-63-9c-10-3.8-10.7-5.7-18.1-7.6C1806,6.7,1784.3,16.5,1769.1,26.1z"/>
<path class="st10" d="M1822.6,128.3c7.9,4.3,32.3,18.8,40,46.7c6.9,25.2-2.6,50.9-7.4,50.9c-4.3,0-3.3-20.6-20.2-42.3
	c-4.8-6.3-6.3-6.4-9.2-11.1C1816.9,158.4,1819,141.1,1822.6,128.3z"/>
<path class="st10" d="M1747.9,150.1c-7.9,5.5-8.3,7.4-8.1,8.4c0.7,2.3,6.9,1.9,14.8,2.2c19.3,0.4,21,3.7,29.1,3
	c23.3-2,41.4-30.6,38.8-33.8c-1.1-1.3-4.8,2.4-15,5c-16.5,4.3-20.3-1.7-35.4,2.2C1762.7,139.6,1756.7,143.8,1747.9,150.1z"/>
<path class="st10" d="M1900.9,194.8c-12.1-8.5-32.5-25.7-42.6-54.2c-10.1-28.5-6.6-60.3-0.1-61.6c3.3-0.8,6,6.8,31.3,46.6
	c6.2,9.9,6.8,10.6,8.1,13.3C1907.5,158.9,1904.7,180,1900.9,194.8z"/>
<path class="st10" d="M1859.6,74.2c-10.1-3.6-42.8-13.4-73.7,2.5c-27.8,14.3-42.8,43.5-39,47.7c3.5,3.8,20.9-13.7,53.7-16.5
	c9.4-0.7,10.7,0.5,17.3-0.8C1837.6,103.4,1851.2,87.5,1859.6,74.2z"/>
</svg>
