<?xml version="1.0" encoding="utf-8"?>
<!-- Generator: Adobe Illustrator 25.2.1, SVG Export Plug-In . SVG Version: 6.00 Build 0)  -->
<svg version="1.1" xmlns="http://www.w3.org/2000/svg" xmlns:xlink="http://www.w3.org/1999/xlink" x="0px" y="0px"
	 viewBox="0 0 1080 1920" style="enable-background:new 0 0 1080 1920;" xml:space="preserve">
<style type="text/css">
	.st0{fill:url(#SVGID_1_);}
	.st1{fill:none;stroke:#065366;stroke-width:7;stroke-miterlimit:10;}
	.st2{fill:none;stroke:#065366;stroke-width:12;stroke-miterlimit:10;}
	.st3{fill:#045366;}
	.st4{fill:none;stroke:#E77B21;stroke-width:9;stroke-miterlimit:10;}
	.st5{fill:none;stroke:#E77B21;stroke-width:15;stroke-miterlimit:10;}
	.st6{fill:#E67B22;}
	.st7{fill:#E8AA43;}
	.st8{fill:none;stroke:#E8AA43;stroke-width:9;stroke-miterlimit:10;}
	.st9{fill:#68AAB5;}
	.st10{fill:#062B35;}
	.st11{fill:none;stroke:#68AAB5;stroke-width:10;stroke-miterlimit:10;}
	.st12{fill:none;stroke:#68AAB5;stroke-width:5;stroke-miterlimit:10;}
	.st13{fill:none;stroke:#155366;stroke-width:5;stroke-miterlimit:10;}
	.st14{fill:#155366;}
	.st15{fill:none;stroke:#155366;stroke-width:7;stroke-miterlimit:10;}
	.st16{fill:#175366;}
	.st17{fill:none;stroke:#062B35;stroke-width:5;stroke-miterlimit:10;}
	.st18{fill:none;stroke:#062B35;stroke-width:6;stroke-miterlimit:10;}
</style>
<g id="_x31_">
	<linearGradient id="SVGID_1_" gradientUnits="userSpaceOnUse" x1="539.9541" y1="1921.0459" x2="539.9541" y2="1.0459">
		<stop  offset="0" style="stop-color:#E5D1D1"/>
		<stop  offset="1.343453e-02" style="stop-color:#E7D4D4"/>
		<stop  offset="0.159" style="stop-color:#F8F2F2"/>
		<stop  offset="0.2386" style="stop-color:#FEFDFD"/>
		<stop  offset="0.5316" style="stop-color:#FFFFFF"/>
		<stop  offset="0.778" style="stop-color:#FBF6F6"/>
		<stop  offset="1" style="stop-color:#E5D1D1"/>
	</linearGradient>
	<rect x="0" y="1" class="st0" width="1080" height="1920"/>
	<g>
		<path class="st1" d="M569.4,1890.6c11.4,77.9-244.4,249-465,180.6c-83.4-25.9-222.6-103.9-222.9-222.9
			c-0.4-118.6,122.2-222.9,222.9-222.9c84.4,0,100.8,73.2,272.8,166.5C508.6,1863,564.2,1855.6,569.4,1890.6z"/>
		<path class="st2" d="M611.5,1905.1c11.4,77.9-244.4,249-465,180.6C63,2059.8-76.1,1981.7-76.5,1862.7
			c-0.4-118.6,122.2-222.9,222.9-222.9c84.4,0,100.8,73.2,272.8,166.5C550.7,1877.5,606.3,1870,611.5,1905.1z"/>
		<path class="st2" d="M560.6,1905.1c11.4,77.9-244.4,249-465,180.6c-83.4-25.9-222.6-103.9-222.9-222.9
			c-0.4-118.6,122.2-222.9,222.9-222.9c84.4,0,100.8,73.2,272.8,166.5C499.8,1877.5,555.4,1870,560.6,1905.1z"/>
		<path class="st3" d="M594,1919.8c11.4,77.9-244.4,249-465,180.6c-83.4-25.9-222.6-103.9-222.9-222.9
			c-0.4-118.6,122.2-222.9,222.9-222.9c84.4,0,100.8,73.2,272.8,166.5C533.3,1892.3,588.8,1884.8,594,1919.8z"/>
	</g>
	<g>
		<path class="st4" d="M1252.5,210.1c-31.3,171.4-480.7,262.6-568.7,143.7c-28.5-38.4-14.8-92.8-2-143.7
			c23.6-93.8,110.9-272.8,285.4-273.5C1136.7-64.1,1271.9,104,1252.5,210.1z"/>
		<path class="st5" d="M1270.5,194.4C1239.3,365.8,789.9,457,701.8,338.1c-28.5-38.4-14.8-92.8-2-143.7
			C723.4,100.7,810.7-78.3,985.2-79C1154.7-79.8,1289.9,88.4,1270.5,194.4z"/>
		<path class="st6" d="M1263.3,172.1C1232,343.5,782.7,434.7,694.6,315.8c-28.5-38.4-14.8-92.8-2-143.7
			c23.6-93.8,110.9-272.8,285.4-273.5C1147.5-102.1,1282.7,66,1263.3,172.1z"/>
	</g>
</g>
<g id="_x32_">
	<path class="st7" d="M1094.5,1927.4c-139,100.3-355.5,100.3-400.3,23.8c-18.2-31.1-7.4-73.7-2-95.1c22-86.6,99.8-124.5,109-128.8
		c69.3-32.3,97.2,6.4,144.7-17.8c102.8-52.5,39.4-268.7,128.8-311.1c47.2-22.4,118.7,12.4,154.6,55.5
		C1320.8,1563.9,1251.8,1813.9,1094.5,1927.4z"/>
	<g>
		<path class="st8" d="M240.4,990.7c-13,168.7-154.4,330.9-238,311.1c-93-22-103-266.5-104.9-311.1c-5.2-127,16.1-364.2,104.9-382.5
			C91.7,589.8,255.7,791.5,240.4,990.7z"/>
		<path class="st8" d="M252.7,952.2c-13,168.7-154.4,330.9-238,311.1c-93-22-103-266.5-104.9-311.1C-95.3,825.2-74,588,14.7,569.7
			C104,551.3,268.1,753,252.7,952.2z"/>
		<path class="st8" d="M269.8,990.7c-13,168.7-154.4,330.9-238,311.1c-93-22-103-266.5-104.9-311.1c-5.2-127,16.1-364.2,104.9-382.5
			C121.1,589.8,285.1,791.5,269.8,990.7z"/>
		<path class="st7" d="M240.4,968.3c-13,168.7-154.4,330.9-238,311.1c-93-22-103-266.5-104.9-311.1c-5.2-127,16.1-364.2,104.9-382.5
			C91.7,567.4,255.7,769.1,240.4,968.3z"/>
	</g>
	<path class="st9" d="M480.1-70.1C503.5-5,386.6,123.5,252,147.4C105.9,173.3-58.4,75.5-54.9,3.2c3.6-74.1,184-124.9,306.9-130.8
		C284.5-129.1,456-137.4,480.1-70.1z"/>
	<path class="st3" d="M909.6,555.5c47-63.2,348.8-3.2,456.5,201.1c40.7,77.3,83.9,230.9,0,315.3c-83.6,84.1-244.1,71.2-315.3,0
		c-59.6-59.6-19.5-123.1-75.2-310.6C933.1,617.9,888.5,583.8,909.6,555.5z"/>
	<g>
		<circle class="st10" cx="433.6" cy="1882.2" r="11.5"/>
		<circle class="st10" cx="480.3" cy="1882.2" r="11.5"/>
		<circle class="st10" cx="526.5" cy="1882.8" r="11.5"/>
		<circle class="st10" cx="433.8" cy="1923.7" r="11.5"/>
		<circle class="st10" cx="480.5" cy="1923.7" r="11.5"/>
		<circle class="st10" cx="527.7" cy="1924.3" r="11.5"/>
		<circle class="st10" cx="434" cy="1965.1" r="11.5"/>
		<circle class="st10" cx="480.7" cy="1966" r="11.5"/>
		<circle class="st10" cx="527.9" cy="1965.6" r="11.5"/>
	</g>
	<g>
		<circle class="st7" cx="824" cy="77.3" r="13.1"/>
		<circle class="st7" cx="877.3" cy="77.3" r="13.1"/>
		<circle class="st7" cx="929.9" cy="77.9" r="13.1"/>
		<circle class="st7" cx="824.2" cy="124.6" r="13.1"/>
		<circle class="st7" cx="877.5" cy="124.6" r="13.1"/>
		<circle class="st7" cx="931.3" cy="125.2" r="13.1"/>
		<circle class="st7" cx="824.4" cy="171.9" r="13.1"/>
		<circle class="st7" cx="877.7" cy="172.9" r="13.1"/>
		<circle class="st7" cx="931.5" cy="172.4" r="13.1"/>
	</g>
</g>
<g id="_x33_">
	<path class="st6" d="M331.1,1473c39.9,26.4,70.7,81.6,55.5,105c-24.8,38-180.6,6.2-190.2-45.6c-5.5-29.6,35.1-74.2,79.3-77.3
		C301.3,1453.3,320.8,1466.2,331.1,1473z"/>
	<path class="st9" d="M158.3,656.9c8.8,149.5-218.2,279.8-251.7,251.7c-15.5-13,21.1-51,93.4-252c32.4-90.1,42.1-129.6,67.4-132.8
		C103.3,519.3,154.3,590.1,158.3,656.9z"/>
	<path class="st6" d="M656,125.5c23,11.4,1.7,116.6-13.9,116.9c-9.8,0.2-17.3-41.7-19.8-55.5c-5.9-32.8,0.2-42.8,2-45.6
		C631.5,130.4,647.1,121.1,656,125.5z"/>
	<path class="st3" d="M877,624.8c3.1-0.4,5.8,1.3,7.2,2.3c24.3,17.3,78.6,92.1,58.2,112.6c-13.5,13.6-59.5,2.8-78.2-27.7
		C842.9,677.5,862.2,626.9,877,624.8z"/>
	<path class="st7" d="M195.1,1278.9c-3.9-4.2,6.6-14.8,62-100.2c22.7-35,29-45.6,33.8-44.1c9.1,2.9,9.8,47.8-9.8,83.7
		C256.2,1263.9,202.7,1287.1,195.1,1278.9z"/>
	<path class="st7" d="M788.9,1669.4c-2-7.1,16.7-24.2,38.1-22.2c16.2,1.5,31.6,13.8,29.9,20.6C853.8,1680.1,792.1,1681,788.9,1669.4
		z"/>
	<g>
		<path class="st9" d="M1198.9,1346.2c-10.6,39.6-46.4,110.6-111,111c-59.5,0.4-107.6-59.2-111-111c-6-92.2,129.2-173.4,188.3-142.7
			C1205,1224.2,1212.1,1296.6,1198.9,1346.2z"/>
		<path class="st11" d="M1187.9,1327.9c-10.6,39.6-46.4,110.6-111,111c-59.5,0.4-107.6-59.2-111-111
			c-6-92.2,129.2-173.4,188.3-142.7C1194,1205.9,1201.1,1278.3,1187.9,1327.9z"/>
		<path class="st12" d="M1181.9,1346.2c-10.6,39.6-46.4,110.6-111,111c-59.5,0.4-107.6-59.2-111-111
			c-6-92.2,129.2-173.4,188.3-142.7C1188,1224.2,1195.1,1296.6,1181.9,1346.2z"/>
	</g>
	<path class="st9" d="M324.3,202.1c-3.8,7.8-13.6,27.8-31.2,28.1c-15.4,0.3-30.2-14.5-31.2-28.1c-1.9-27.1,51.4-53.5,65.5-42.6
		C336.6,166.5,330.4,189.8,324.3,202.1z"/>
	<g>
		<circle class="st10" cx="1046.7" cy="712" r="18.5"/>
		<circle class="st10" cx="1121.9" cy="712" r="18.5"/>
		<circle class="st10" cx="1196.2" cy="712.9" r="18.5"/>
		<circle class="st10" cx="1047" cy="778.7" r="18.5"/>
		<circle class="st10" cx="1122.2" cy="778.7" r="18.5"/>
		<circle class="st10" cx="1198.2" cy="779.6" r="18.5"/>
		<circle class="st10" cx="1047.3" cy="845.5" r="18.5"/>
		<circle class="st10" cx="1122.6" cy="846.8" r="18.5"/>
		<circle class="st10" cx="1198.5" cy="846.1" r="18.5"/>
	</g>
	<g>
		<circle class="st6" cx="-47.5" cy="1259.3" r="11.5"/>
		<circle class="st6" cx="-0.7" cy="1259.3" r="11.5"/>
		<circle class="st6" cx="45.4" cy="1259.9" r="11.5"/>
		<circle class="st6" cx="-47.3" cy="1300.8" r="11.5"/>
		<circle class="st6" cx="-0.6" cy="1300.8" r="11.5"/>
		<circle class="st6" cx="46.6" cy="1301.4" r="11.5"/>
		<circle class="st6" cx="-47.1" cy="1342.2" r="11.5"/>
		<circle class="st6" cx="-0.3" cy="1343.1" r="11.5"/>
		<circle class="st6" cx="46.8" cy="1342.7" r="11.5"/>
	</g>
	<g>
		<circle class="st7" cx="690.2" cy="1762.6" r="10.9"/>
		<circle class="st7" cx="734.5" cy="1762.6" r="10.9"/>
		<circle class="st7" cx="778.3" cy="1763.2" r="10.9"/>
		<circle class="st7" cx="690.4" cy="1801.9" r="10.9"/>
		<circle class="st7" cx="734.7" cy="1801.9" r="10.9"/>
		<circle class="st7" cx="779.4" cy="1802.5" r="10.9"/>
		<circle class="st7" cx="690.6" cy="1841.2" r="10.9"/>
		<circle class="st7" cx="734.9" cy="1842" r="10.9"/>
		<circle class="st7" cx="779.6" cy="1841.6" r="10.9"/>
	</g>
</g>
<g id="_x34_">
	<ellipse class="st6" cx="934.5" cy="1915" rx="72.3" ry="80.3"/>
	<path class="st7" d="M931.5-0.3c-9.5,96.8-126,172.5-188.3,152.6c-32-10.2-29.7-39.3-83.2-79.3c-61.3-45.8-98.3-33.1-113-61.4
		c-27.1-52.1,47.8-192.3,162.5-208C820.5-211.5,942-106.7,931.5-0.3z"/>
	<path class="st9" d="M414.3,1834.8c-16.5,33.8-58.6,120-134.7,121.4c-66.5,1.2-130.5-62.8-134.7-121.4
		c-8.2-117.2,222.3-231.3,283.2-184.3C467.5,1680.8,440.4,1781.4,414.3,1834.8z"/>
	<path class="st3" d="M200.3,209.8C147,266.1-83.8,197.2-93,84C-98.9,11.4-13.6-75.4,62.6-71.6C180.3-65.8,252.3,155,200.3,209.8z"
		/>
	<path class="st9" d="M112.9,915.8c-6.9,9-24.5,32-56.4,32.4c-29.2,0.3-58.3-20-56.4-32.4c1.6-10.3,23.1-7.3,65.5-26.3
		c33.6-15.1,45.3-28.3,53.2-22.9C127.9,873,125,900.1,112.9,915.8z"/>
	<g>
		<circle class="st10" cx="-43.9" cy="291.5" r="11.5"/>
		<circle class="st10" cx="2.9" cy="291.5" r="11.5"/>
		<circle class="st10" cx="49" cy="292.1" r="11.5"/>
		<circle class="st10" cx="-43.7" cy="333" r="11.5"/>
		<circle class="st10" cx="3.1" cy="333" r="11.5"/>
		<circle class="st10" cx="50.2" cy="333.6" r="11.5"/>
		<circle class="st10" cx="-43.5" cy="374.4" r="11.5"/>
		<circle class="st10" cx="3.3" cy="375.3" r="11.5"/>
		<circle class="st10" cx="50.4" cy="374.9" r="11.5"/>
	</g>
	<g>
		<circle class="st6" cx="1049.7" cy="1670.8" r="8.2"/>
		<circle class="st6" cx="1083" cy="1670.8" r="8.2"/>
		<circle class="st6" cx="1115.9" cy="1671.2" r="8.2"/>
		<circle class="st6" cx="1049.8" cy="1700.4" r="8.2"/>
		<circle class="st6" cx="1083.1" cy="1700.4" r="8.2"/>
		<circle class="st6" cx="1116.8" cy="1700.8" r="8.2"/>
		<circle class="st6" cx="1049.9" cy="1729.9" r="8.2"/>
		<circle class="st6" cx="1083.3" cy="1730.5" r="8.2"/>
		<circle class="st6" cx="1116.9" cy="1730.2" r="8.2"/>
	</g>
	<g>
		<circle class="st9" cx="956" cy="498.8" r="8.9"/>
		<circle class="st9" cx="992.3" cy="498.8" r="8.9"/>
		<circle class="st9" cx="1028.2" cy="499.2" r="8.9"/>
		<circle class="st9" cx="956.2" cy="531" r="8.9"/>
		<circle class="st9" cx="992.5" cy="531" r="8.9"/>
		<circle class="st9" cx="1029.1" cy="531.4" r="8.9"/>
		<circle class="st9" cx="956.3" cy="563.2" r="8.9"/>
		<circle class="st9" cx="992.6" cy="563.8" r="8.9"/>
		<circle class="st9" cx="1029.3" cy="563.5" r="8.9"/>
	</g>
</g>
<g id="_x35_">
	<g>
		<circle class="st3" cx="563.3" cy="-18.3" r="7.5"/>
		<circle class="st3" cx="593.7" cy="-18.3" r="7.5"/>
		<circle class="st3" cx="623.8" cy="-17.9" r="7.5"/>
		<circle class="st3" cx="563.4" cy="8.7" r="7.5"/>
		<circle class="st3" cx="593.9" cy="8.7" r="7.5"/>
		<circle class="st3" cx="624.6" cy="9.1" r="7.5"/>
		<circle class="st3" cx="563.5" cy="35.8" r="7.5"/>
		<circle class="st3" cx="594" cy="36.3" r="7.5"/>
		<circle class="st3" cx="624.7" cy="36" r="7.5"/>
	</g>
	<g>
		<circle class="st9" cx="153.1" cy="57.3" r="9"/>
		<circle class="st9" cx="189.6" cy="57.3" r="9"/>
		<circle class="st9" cx="225.6" cy="57.7" r="9"/>
		<circle class="st9" cx="153.2" cy="89.6" r="9"/>
		<circle class="st9" cx="189.7" cy="89.6" r="9"/>
		<circle class="st9" cx="226.6" cy="90.1" r="9"/>
		<circle class="st9" cx="153.4" cy="122" r="9"/>
		<circle class="st9" cx="189.9" cy="122.7" r="9"/>
		<circle class="st9" cx="226.7" cy="122.3" r="9"/>
	</g>
	<g>
		<circle class="st3" cx="963.7" cy="1389.6" r="12.6"/>
		<circle class="st3" cx="1015.1" cy="1389.6" r="12.6"/>
		<circle class="st3" cx="1065.8" cy="1390.2" r="12.6"/>
		<circle class="st3" cx="963.9" cy="1435.1" r="12.6"/>
		<circle class="st3" cx="1015.3" cy="1435.1" r="12.6"/>
		<circle class="st3" cx="1067.1" cy="1435.8" r="12.6"/>
		<circle class="st3" cx="964.2" cy="1480.7" r="12.6"/>
		<circle class="st3" cx="1015.5" cy="1481.6" r="12.6"/>
		<circle class="st3" cx="1067.4" cy="1481.2" r="12.6"/>
	</g>
	<g>
		<circle class="st3" cx="161.2" cy="738.7" r="7.8"/>
		<circle class="st3" cx="193" cy="738.7" r="7.8"/>
		<circle class="st3" cx="224.5" cy="739.1" r="7.8"/>
		<circle class="st3" cx="161.3" cy="766.9" r="7.8"/>
		<circle class="st3" cx="193.2" cy="766.9" r="7.8"/>
		<circle class="st3" cx="225.3" cy="767.3" r="7.8"/>
		<circle class="st3" cx="161.4" cy="795.2" r="7.8"/>
		<circle class="st3" cx="193.3" cy="795.8" r="7.8"/>
		<circle class="st3" cx="225.5" cy="795.5" r="7.8"/>
	</g>
	<path class="st13" d="M1108.1,1216.8c-5.7-9-27.6-41.3-71.3-55.5c-41.8-13.5-76.9-1.9-87.2,2"/>
	<path class="st13" d="M923.5,292.2c29.5-11.3,95.5-41.5,143-111.8c21.7-32.1,33.2-63.4,39.6-87.2"/>
	<path class="st13" d="M838.6,1454.6c44.3,47.8,105.2,124.4,152.6,231.9c44.7,101.3,61.1,192.6,67.4,255.6"/>
	<path class="st13" d="M309.3,156.6c-12.7-8-28.4-20.5-41.4-39.6C228.1,58.6,248.5-10.4,252-21.8"/>
	<path class="st13" d="M41.9,2013.4c36.9-15.3,113.6-53.4,170.4-136.7c26.8-39.3,41.6-77.4,50-106.7"/>
	<path class="st14" d="M882,302.8c3.9-0.9,4.7-0.2,10.3-0.9c19.5-2.4,29.4-13.3,31.6-11.2c2.4,2.4-5.8,20.2-22,29.4
		c-18,10.3-37.7,5.2-43.9,3.4C862.7,315.3,870.3,305.5,882,302.8z"/>
	<path class="st14" d="M902.7,262.9c4,1.6,4.3,2.7,9.7,5.5c18.9,9.8,34.4,6.1,35,9.4c0.7,3.6-17.5,14.5-37.6,12.8
		c-22.3-1.9-36.8-18.4-41.2-23.9C877.8,262.3,890.6,258.2,902.7,262.9z"/>
	<path class="st14" d="M948.7,266c-4.7-1.3-5.2-2.6-11.7-5.2c-22.6-9.1-39.9-3.2-40.9-6.9c-1.2-4.1,18.4-18.4,41.5-18.7
		c25.7-0.3,44,17,49.6,22.7C977.2,264,963,270.1,948.7,266z"/>
	<path class="st14" d="M1027.5,104.4c11.2,3.3,14.5,8.1,32.7,13c24.5,6.6,37.4,3,38.2,6.7c1.4,6.4-34.8,28-70.5,21.8
		c-8.3-1.5-7.4-2.8-25.9-7.8c-35.2-9.5-48.4-7.2-49.1-11.6C951.4,118.6,992.6,94.1,1027.5,104.4z"/>
	<path class="st14" d="M927.5,305.9c-0.8,4.2,0,5.1-0.4,11.2c-1.6,21.2-12.8,32.5-10.4,34.7c2.7,2.5,21.5-7.3,30.6-25.3
		c10.1-20,3.6-41,1.3-47.6C940,284.4,929.8,293.1,927.5,305.9z"/>
	<path class="st14" d="M970.3,295.1c0.5,4.9,1.6,5.6,3,12.4c4.8,23.9-4.2,39.8-0.8,41.5c3.8,1.9,21.5-14.7,26-37.4
		c5-25.2-8.6-46.4-13.2-52.9C977.5,267.5,968.9,280.3,970.3,295.1z"/>
	<path class="st14" d="M1139.9,190c-3.8-6.5-5.8-6.7-12.2-15.2c-22.1-29.8-20.2-57.6-25.9-57.7c-6.5-0.1-11.8,37.8-11.5,68.5
		c0.1,18.3,2.1,24.1,3.1,26.5c9.9,25.7,39.8,35.2,49.6,37.9C1148,232.9,1151.4,209.5,1139.9,190z"/>
	<path class="st14" d="M1052.9,47.3c7,2.8,7.5,4.8,16.9,9.8c32.8,17.5,60,11.4,60.9,17.1c1.1,6.4-31,24.9-66.1,21.5
		c-39-3.8-64-33-71.5-42.5C1009.4,45.7,1031.9,38.8,1052.9,47.3z"/>
	<path class="st14" d="M987.6,236.1c-5.3-1.5-5.8-2.9-13.1-5.8c-25.3-10.2-44.7-3.6-45.9-7.7c-1.3-4.6,20.6-20.7,46.6-21
		c28.8-0.3,49.3,19,55.6,25.4C1019.5,233.9,1003.6,240.7,987.6,236.1z"/>
	<path class="st14" d="M1036.1,277.6c-0.4-15.5-7.2-17.5-7.6-34.4c-0.3-10.5,2.2-15,0.7-15.7c-3.7-1.6-26.1,23.5-21.6,46.3
		c1.6,8,5.2,8.7,10.9,27c2.4,7.4,3.7,13.5,6.1,13.5c1,0,2.7-0.9,5.8-10C1034,294.2,1036.4,287.3,1036.1,277.6z"/>
	<path class="st14" d="M1000.1,158.2c2.9,0.5,3.7,0.9,14.9,4.1c44.9,13.2,52.9,13.7,53.1,17.1c0.5,6.6-28.9,18.6-58.9,16.8
		c-29.9-1.8-52-16.6-63.4-25.8C958.8,162.7,978.2,154.3,1000.1,158.2z"/>
	<path class="st14" d="M1052.2,225.7c0.6,6.6,2.1,7.5,4,16.7c6.4,32.1-5.6,53.5-1,55.8c5.1,2.5,28.9-19.8,34.9-50.3
		c6.7-33.9-11.6-62.4-17.8-71.1C1061.9,188.5,1050.4,205.8,1052.2,225.7z"/>
	<path class="st15" d="M829.4,1416.8c1.1,3.8,0.4,4.7,1.4,10.2c3.3,19.4,14.7,28.7,12.6,31c-2.3,2.5-20.5-4.8-30.4-20.6
		c-11.1-17.5-7-37.4-5.4-43.7C815.9,1398.1,826.1,1405.3,829.4,1416.8z"/>
	<path class="st15" d="M873.1,1435.6c-1.4,4.1-2.5,4.4-5,10c-8.9,19.3-4.5,34.6-7.7,35.4c-3.6,0.8-15.3-16.8-14.5-37
		c0.9-22.4,16.7-37.6,21.9-42.2C872.6,1410.7,877.3,1423.3,873.1,1435.6z"/>
	<path class="st15" d="M875.6,1472.6c1.1-4.8,2.3-5.3,4.6-11.9c8-23,1.3-40,4.9-41.2c4-1.3,19.3,17.5,20.6,40.6
		c1.5,25.7-14.9,44.8-20.3,50.6C879,1501,872.2,1487.1,875.6,1472.6z"/>
	<path class="st15" d="M1027.9,1606.5c-6.9,9.5-12.4,11-23.1,26.5c-14.4,20.9-15.3,34.3-19,33.8c-6.5-0.8-14.9-42.1,2.9-73.8
		c4.1-7.4,5.1-6.1,16-21.9c20.7-30.1,22.9-43.2,27.2-42.5C1039.8,1530,1049.2,1577,1027.9,1606.5z"/>
	<path class="st15" d="M844,1479.8c-4.3,0.1-5,1-11,1.8c-21.1,2.7-34.4-6-36.1-3.2c-1.9,3.2,11.5,19.6,31,24.9
		c21.6,5.9,40.9-4.7,46.8-8.3C867.6,1487.7,856.9,1479.5,844,1479.8z"/>
	<path class="st15" d="M861.9,1515.1c-4.9,0.7-5.5,1.9-12.3,3.5c-23.6,5.9-39.9-2.3-41.5,1.2c-1.7,3.9,15.7,20.8,38.6,24.2
		c25.4,3.8,45.9-10.8,52.2-15.7C889.8,1521,876.6,1513,861.9,1515.1z"/>
	<path class="st15" d="M908,1695.3c12.5-1.7,14.6-3,26.9-4.4c36.1-4.1,54.2,3.4,55.6-0.8c1.9-5.6-28.2-27-63.3-28.7
		c-14.5-0.7-25.6,2.2-29.7,3.4c-25,7.3-40,23.7-46,31C874.1,1698.4,893.1,1697.3,908,1695.3z"/>
	<path class="st15" d="M1063.9,1671c-4.7,5.9-6.7,5.8-14.2,13.4c-26,26.5-27.9,54.3-33.6,53.6c-6.4-0.8-15.2-36.7-2-69.5
		c14.6-36.4,49.7-52.1,61-56.6C1077.8,1629.7,1078,1653.3,1063.9,1671z"/>
	<path class="st15" d="M907,1512.2c1.3-5.4,2.6-6,5.2-13.4c9-25.8,1.5-44.8,5.5-46.2c4.5-1.5,21.6,19.7,23.1,45.5
		c1.7,28.8-16.7,50.2-22.8,56.7C910.8,1544,903.2,1528.4,907,1512.2z"/>
	<path class="st15" d="M880,1584.4c15.5-1.2,17.1-8,34-9.2c10.5-0.8,15.1,1.5,15.7-0.1c1.4-3.8-24.7-25-47.2-19.4
		c-7.9,2-8.4,5.6-26.4,12.2c-7.3,2.7-13.3,4.3-13.2,6.8c0,1,1,2.6,10.2,5.3C863.4,1583.1,870.4,1585.2,880,1584.4z"/>
	<path class="st15" d="M984.9,1540.3c-1.1,2.7-1.6,3.5-7.2,13.7c-22.3,41.1-24.5,48.8-27.9,48.3c-6.6-0.9-12.1-32.1-4-61.1
		c8-28.8,27.2-47.3,38.5-56.5C989.1,1498.9,993.3,1519.7,984.9,1540.3z"/>
	<path class="st15" d="M905,1603.4c-6.6,0.9-7.4,2.5-16.5,4.8c-31.8,7.9-53.7-3.1-55.8,1.6c-2.3,5.2,21.1,27.9,51.9,32.6
		c34.2,5.1,61.8-14.5,70.2-21.1C942.6,1611.3,924.8,1600.6,905,1603.4z"/>
	<path class="st15" d="M940.7,1753.9c12.4,1.9,14.9,1.3,27,3.4c35.8,6.3,51,18.6,53.5,15c3.4-4.8-19.3-33.9-52.6-45.4
		c-13.7-4.8-25.2-5.1-29.5-5.1c-26.1-0.1-45.1,11.3-52.9,16.7C907.3,1747.2,925.8,1751.6,940.7,1753.9z"/>
	<path class="st15" d="M1094.9,1763.4c-9.3,7.2-15.1,7-29.7,18.8c-19.8,16-24.4,28.5-27.9,27c-6-2.6-2.3-44.6,23.8-69.9
		c6.1-5.9,6.6-4.4,21.5-16.4c28.4-23,34.2-34.9,38.2-33C1128.2,1693.5,1123.8,1741.2,1094.9,1763.4z"/>
	<path class="st15" d="M939.6,1831c14.7-1.8,17.3-3.2,31.7-4.7c42.6-4.3,63.9,4,65.5-0.5c2.2-6.1-33.4-30-74.8-32
		c-17.1-0.8-30.2,2.3-35,3.6c-29.5,7.9-47.1,25.9-54.1,34C899.5,1834.1,922,1833.1,939.6,1831z"/>
	<path class="st15" d="M1119.4,1849.4c-2.6,1.4-3.5,1.5-14.7,5.5c-44.8,15.8-51.3,20.5-54.2,17.2c-5.7-6.5,6.9-37.8,31.2-55.5
		c24.1-17.7,53-17,69.1-15.1C1147.2,1817.8,1139.2,1839,1119.4,1849.4z"/>
	<path class="st15" d="M949.1,1912.4c9.7,1.5,11.2,0.1,24.8,1.1c47.6,3.5,78.7,23.7,82.2,19.5c3.9-4.8-28.2-38.2-72.9-54.9
		c-49.8-18.5-92.4-7.8-105.6-3.9C894.7,1889.5,919.7,1907.9,949.1,1912.4z"/>
	<path class="st16" d="M357.8,171.3c-1,2.3-15.8-2.8-16.7-0.5c-0.5,1.3,3.8,4.4,7.7,6.2c6.3,2.9,8.8,1.2,14.3,4.1
		c2.1,1.1,7,3.7,7.4,7.7c0.4,4.5-5.5,6.8-4.7,10c0.8,3,6.7,3,12.7,4.9c12.3,3.9,21.9,14.7,20.5,17.6c-1.5,3-16.6,1-28.6-6.5
		c-9.4-5.8-15.6-14.2-16.4-13.5c-0.8,0.6,5,7,3.7,8.5c-1.7,2-16.6-3.4-22.6-15.2c-4-7.8-3-16.2-4.7-16.3c-1.7-0.1-2,8-5.1,9
		c-3.2,1-10.1-6-25.9-38.4c5.4,0,13.1,0.5,22,2.8C342.2,156.8,358.9,168.8,357.8,171.3z"/>
	<path class="st16" d="M326.7,113.8c-0.1,2.5-15.8,3.1-15.7,5.6c0,1.4,5.1,2.7,9.4,2.9c6.9,0.4,8.6-2.2,14.8-1.4
		c2.3,0.3,7.9,0.9,9.7,4.5c2.1,4.1-2.6,8.4-0.7,11c1.8,2.5,7.3,0.3,13.6-0.1c12.8-0.9,25.8,5.6,25.5,8.9c-0.2,3.4-15.1,7-29,4.4
		c-10.9-2-19.7-7.5-20.2-6.6c-0.5,0.9,7.2,4.7,6.6,6.6c-0.8,2.5-16.7,2.9-26.6-5.8c-6.5-5.8-8.7-14-10.4-13.5
		c-1.7,0.5,1,8.2-1.4,10.2c-2.6,2.1-11.6-1.9-38.1-26.3c5-1.9,12.4-4.3,21.5-5.5C306.8,105.9,326.8,111,326.7,113.8z"/>
	<path class="st16" d="M300.4,85.7c1.1,1.4-7.1,9.2-5.9,10.5c0.7,0.7,4.1-1,6.5-2.9c4-3.1,3.7-5.3,7.4-7.9c1.4-1,4.7-3.3,7.4-2.2
		c3.1,1.2,2.6,5.8,4.8,6.3c2.2,0.5,4.1-3.3,7.4-6.5c6.6-6.6,16.7-9.2,18.1-7.4c1.5,1.9-4.9,11-13.6,16.2c-6.8,4.1-14.3,5.3-14.1,6.1
		c0.2,0.7,6.2-0.9,6.7,0.4c0.7,1.7-7.7,9.5-17.2,9.5c-6.3,0-11.4-3.5-12.1-2.4c-0.7,1.1,4.5,4,4.1,6.2c-0.4,2.4-7.2,4.5-33.2,3.9
		c1.8-3.4,4.7-8.2,9.1-13.2C285.9,90.9,299.1,84.1,300.4,85.7z"/>
	<path class="st16" d="M269,53.4c3.8-0.3,5.4,9.1,10.9,9.4c4.5,0.2,8.5-5.6,10-7.8c4.4-6.4,3.2-11,6.6-12.3c3.3-1.2,8.3,1.6,8.9,4.6
		c0.5,2.3-1.9,3.4-1.7,6.4c0.2,2.8,2.6,5.8,4.9,6.1c2,0.2,4.7-1.6,10.7-13.1c8.2-15.7,8.8-22.8,10.9-22.6c3.3,0.2,9.2,19.6,1,31.5
		c-4.6,6.5-12.7,9.6-11.9,11.6c0.8,1.9,7.7-0.3,8.3,1.2c0.7,1.9-9.2,10.4-21.4,11c-9.1,0.5-16.4-3.6-17.9-1.1
		c-1,1.7,2.2,3.8,1.5,6.5c-1.4,5.2-15.1,6-22.8,5.6c-7.4-0.4-13.4-2-17.4-3.5c2.8-3.2,6.8-8.3,10.2-15.2
		C264.8,61.6,265.6,53.7,269,53.4z"/>
	<path class="st16" d="M272.2-9.7c2.1,1.2-4.5,15.5-2.3,16.5c1.2,0.6,4.8-3.3,6.9-7c3.6-6,2.1-8.7,5.6-13.8c1.3-1.9,4.5-6.6,8.5-6.6
		c4.6,0,6.2,6.2,9.4,5.7c3.1-0.4,3.7-6.3,6.2-12.1c5.2-11.8,16.9-20.3,19.6-18.6c2.9,1.8-0.8,16.6-9.4,27.7
		c-6.8,8.7-15.8,14-15.2,14.9c0.5,0.8,7.5-4.2,8.9-2.8c1.8,1.9-5.2,16.2-17.5,20.9c-8.2,3.1-16.4,1.2-16.8,3c-0.3,1.7,7.8,2.9,8.4,6
		c0.7,3.3-7,9.4-40.9,21.7c0.6-5.3,1.9-13,5.1-21.6C256.1,4.3,269.8-11.1,272.2-9.7z"/>
	<path class="st16" d="M256.4,58.3c1.2,0.3-0.3,7.8,0.8,8.1c0.7,0.1,1.9-2.1,2.5-4.1c1-3.2,0-4.3,1-7.2c0.4-1.1,1.3-3.6,3.2-4.1
		c2.2-0.5,3.7,2.2,5.1,1.6c1.4-0.6,1-3.4,1.5-6.5c1.1-6.2,5.6-11.5,7.1-11.1c1.6,0.5,1.6,7.9-1.2,14.2c-2.2,4.9-5.8,8.5-5.4,8.8
		c0.4,0.3,3-2.9,3.9-2.4c1.1,0.7-0.5,8.2-5.8,11.9c-3.5,2.4-7.6,2.5-7.6,3.4c0.1,0.9,4,0.5,4.7,1.9c0.7,1.5-2.2,5.3-16.8,15
		c-0.3-2.6-0.6-6.3-0.1-10.8C250.4,66.8,255.1,58,256.4,58.3z"/>
	<path class="st16" d="M299.6,1760.4c-0.7-2.3-10.9-0.3-11.6-2.7c-0.4-1.3,2.5-3.5,5.1-4.4c4.3-1.6,6.1,0.6,9.9-1.2
		c1.4-0.7,4.8-2.2,4.9-6c0.1-4.2-4-7.6-3.6-10.4c0.4-2.7,4.5-1.6,8.7-2.3c8.4-1.4,14.8-9.8,13.7-12.9c-1.1-3.2-11.6-4.1-19.7,0.7
		c-6.3,3.8-10.4,10.6-11,9.8c-0.5-0.7,3.3-5.7,2.3-7.4c-1.2-2.2-11.5,0.1-15.2,10.2c-2.5,6.7-1.5,14.9-2.8,14.7
		c-1.2-0.2-1.7-8-3.8-9.5c-2.3-1.6-6.9,3.8-16.7,31.7c3.7,1,9.1,2,15.2,1.5C289.2,1771.3,300.4,1763.1,299.6,1760.4z"/>
	<path class="st16" d="M314.2,1803.3c0.2-2.5-15.4-4.6-15.1-7.1c0.2-1.4,5.4-2.2,9.6-2c6.9,0.3,8.4,3,14.6,2.8c2.3,0,8-0.1,10.1-3.5
		c2.4-3.8-1.8-8.6,0.3-11c2-2.3,7.3,0.4,13.6,1.4c12.7,2.1,26.2-3.2,26.3-6.4c0.1-3.4-14.4-8.4-28.4-7.2c-11,1-20.4,5.6-20.8,4.7
		c-0.4-0.9,7.6-4,7.2-5.9c-0.6-2.5-16.4-4.5-27,3.3c-7.1,5.1-10,13.1-11.6,12.4c-1.6-0.7,1.8-8.1-0.5-10.3
		c-2.4-2.4-11.7,0.7-40.4,22.6c4.8,2.4,11.9,5.4,20.9,7.5C293.6,1809.2,314,1806.1,314.2,1803.3z"/>
	<path class="st16" d="M284.6,1830.9c1.3-1.3-6.2-9.9-4.9-11c0.7-0.7,4,1.4,6.2,3.5c3.7,3.5,3.2,5.6,6.6,8.5
		c1.3,1.1,4.4,3.7,7.2,2.9c3.2-0.9,3.1-5.5,5.4-5.8c2.2-0.3,3.8,3.7,6.7,7.2c5.9,7.2,15.7,10.8,17.3,9c1.6-1.8-3.8-11.4-12-17.4
		c-6.4-4.7-13.7-6.6-13.5-7.4c0.2-0.7,6,1.5,6.7,0.2c0.9-1.7-6.8-10.2-16.3-11.1c-6.3-0.6-11.7,2.4-12.2,1.2
		c-0.5-1.1,4.8-3.5,4.6-5.8c-0.2-2.4-6.7-5.2-32.7-7c1.5,3.6,3.9,8.6,7.8,14C270.6,1824.3,283.2,1832.3,284.6,1830.9z"/>
	<path class="st16" d="M252.5,1867c3.8,0.7,6.2-8.6,11.8-8.3c4.5,0.2,7.9,6.4,9.2,8.7c3.8,6.8,2.2,11.3,5.4,12.8
		c3.1,1.5,8.4-0.8,9.3-3.8c0.7-2.3-1.6-3.6-1.1-6.5c0.5-2.7,3.1-5.5,5.5-5.6c2,0,4.5,2,9.4,14.1c6.7,16.4,6.6,23.5,8.7,23.6
		c3.3,0.1,11.1-18.7,3.9-31.2c-3.9-7-11.7-10.8-10.7-12.7c0.9-1.8,7.7,1,8.3-0.4c0.9-1.8-8.2-11.2-20.3-13c-9-1.3-16.7,2-18-0.6
		c-0.8-1.8,2.5-3.5,2.1-6.3c-0.9-5.3-14.5-7.4-22.1-7.7c-7.4-0.3-13.5,0.8-17.6,1.8c2.5,3.5,6,8.9,8.7,16.1
		C249,1858.4,249.1,1866.4,252.5,1867z"/>
	<path class="st16" d="M236,1932.8c2.3-1-3-15.8-0.7-16.7c1.3-0.5,4.4,3.7,6.3,7.6c3,6.3,1.3,8.8,4.2,14.3c1.1,2.1,3.8,7,7.8,7.3
		c4.5,0.4,6.8-5.5,9.9-4.8c3,0.7,3,6.6,5.1,12.7c4,12.2,14.9,21.8,17.8,20.3c3-1.5,0.8-16.6-6.8-28.5c-5.9-9.3-14.4-15.5-13.7-16.3
		c0.6-0.8,7.1,4.9,8.6,3.6c2-1.7-3.6-16.6-15.4-22.4c-7.8-3.9-16.3-2.8-16.4-4.6c-0.1-1.7,8-2.1,8.9-5.2c1-3.2-6.1-10.1-38.7-25.5
		c0.1,5.4,0.7,13.1,3,22C221.3,1917.3,233.4,1933.9,236,1932.8z"/>
	<path class="st16" d="M242.6,1865.4c1.2-0.2,0.4-7.8,1.6-8c0.7-0.1,1.6,2.3,2.1,4.3c0.7,3.3-0.4,4.3,0.3,7.2c0.3,1.1,1,3.8,2.8,4.4
		c2.1,0.7,3.8-1.8,5.2-1.1c1.3,0.7,0.7,3.5,0.9,6.6c0.5,6.2,4.5,12,6,11.7c1.6-0.4,2.3-7.8,0.1-14.3c-1.7-5.1-5-9-4.6-9.3
		c0.4-0.3,2.8,3.2,3.6,2.7c1.1-0.6,0.2-8.2-4.7-12.4c-3.2-2.8-7.4-3.2-7.2-4.1c0.1-0.8,4-0.1,4.8-1.4c0.8-1.4-1.7-5.5-15.3-16.5
		c-0.6,2.6-1.2,6.3-1.1,10.7C237.5,1856.4,241.3,1865.7,242.6,1865.4z"/>
	<path class="st16" d="M291,1719.5c-2.2-1.1-10.4,12.3-12.5,11c-1.2-0.7,0.1-5.8,2-9.6c3-6.3,6.1-6.5,8.5-12.3
		c0.9-2.2,3.1-7.4,0.8-10.7c-2.6-3.8-8.6-1.8-10-4.7c-1.3-2.8,3.2-6.5,6.7-11.9c7-10.8,7.6-25.3,4.6-26.6
		c-3.1-1.4-13.4,9.8-17.9,23.2c-3.5,10.5-3,20.9-4,20.9c-1,0-0.6-8.6-2.5-8.9c-2.6-0.5-10.6,13.2-7.8,26.1
		c1.9,8.5,8.1,14.4,6.8,15.6c-1.3,1.2-6.7-4.9-9.6-3.7c-3.1,1.3-4,11,4.5,46.1c4.1-3.4,9.8-8.7,15.2-16.2
		C288.3,1740.7,293.5,1720.8,291,1719.5z"/>
	<path class="st16" d="M924,1171.7c-0.3-1.1,7.5-3.9,7.1-5c-0.2-0.6-3-0.3-5.1,0.3c-3.5,1-4,2.3-7.2,3c-1.2,0.3-4.1,0.9-5.5-0.3
		c-1.6-1.4,0.1-4-1.2-4.8c-1.3-0.8-3.7,1-6.8,2.3c-6.3,2.5-13.8,1.8-14.1,0.4c-0.4-1.5,6.6-5.5,13.9-6.6c5.7-0.9,11,0,11.1-0.5
		c0.1-0.4-4.3-0.8-4.3-1.7c0.1-1.2,8-4,14.2-1.9c4.1,1.4,6.4,4.6,7.2,4.1c0.8-0.5-1.7-3.3-0.7-4.6c1-1.3,6.1-1.1,22.9,5
		c-2.2,1.7-5.6,3.9-10,5.9C935.1,1171.8,924.4,1172.9,924,1171.7z"/>
	<path class="st16" d="M984.1,1192.6c-1.5-0.7,2.6-10.5,1.1-11.2c-0.9-0.4-3.1,2.3-4.5,4.9c-2.3,4.1-1.2,5.9-3.4,9.4
		c-0.8,1.3-2.8,4.6-5.5,4.6c-3.1,0.1-4.3-4-6.5-3.6c-2,0.4-2.3,4.3-3.9,8.3c-3.2,8.1-10.9,14-12.8,13c-2-1.1,0.1-11.2,5.7-18.9
		c4.4-6,10.3-9.8,9.9-10.4c-0.4-0.5-4.9,3-5.9,2.1c-1.3-1.2,3.1-11,11.2-14.5c5.4-2.3,11-1.2,11.2-2.4c0.2-1.2-5.3-1.7-5.8-3.8
		c-0.5-2.2,4.5-6.5,27-15.6c-0.3,3.6-1,8.8-2.9,14.6C994.6,1182.8,985.8,1193.5,984.1,1192.6z"/>
	<path class="st16" d="M1001.5,1184.4c-1.1,0-1.7-7.3-2.8-7.2c-0.6,0-1.2,2.4-1.2,4.4c-0.1,3.2,1.1,4,0.9,6.9
		c-0.1,1.1-0.3,3.7-1.9,4.6c-1.9,1-3.9-1.1-5.1-0.2c-1.1,0.9-0.1,3.4,0.2,6.3c0.6,6-2.3,12.1-3.8,12c-1.6-0.1-3.5-6.9-2.5-13.4
		c0.8-5.1,3.2-9.3,2.8-9.5c-0.4-0.2-2.1,3.4-3,3.2c-1.2-0.4-1.6-7.7,2.3-12.5c2.6-3.1,6.4-4.2,6.1-5c-0.3-0.8-3.8,0.6-4.8-0.5
		c-1-1.2,0.7-5.4,11.7-18.1c1,2.3,2.2,5.7,2.8,9.9C1004.9,1175,1002.8,1184.4,1001.5,1184.4z"/>
	<path class="st16" d="M1043.9,1191c-2.3,2.1-8-3.2-11.7-0.6c-3,2.1-2.7,7.8-2.5,10c0.4,6.3,3.4,8.7,1.9,11.2
		c-1.5,2.4-6.1,3.1-8,1.5c-1.5-1.3-0.4-3.1-2.1-4.9c-1.5-1.7-4.5-2.5-6.2-1.4c-1.4,0.9-2.2,3.4-0.3,13.8c2.5,14.2,5.7,19,4.3,20
		c-2.2,1.5-15.7-8-16.3-19.7c-0.3-6.5,3.3-12.5,1.8-13.4c-1.4-0.8-4.8,4-5.9,3.4c-1.4-0.9,0.7-11.3,8.2-17.7
		c5.6-4.8,12.3-5.9,12.1-8.3c-0.2-1.6-3.3-1.3-4.2-3.4c-1.7-4,6.7-11.4,11.8-15c4.9-3.5,9.6-5.4,12.9-6.4c-0.2,3.5-0.2,8.7,1,14.8
		C1042.5,1183.6,1046,1189.1,1043.9,1191z"/>
	<path class="st16" d="M1086.2,1242.1c-2.4,0.4-5.9-15-8.3-14.5c-1.4,0.3-1.7,5.5-1.2,9.8c0.9,6.9,3.7,8.1,4.1,14.3
		c0.2,2.3,0.5,8-2.6,10.4c-3.6,2.8-8.7-1-10.9,1.3c-2.1,2.2,1,7.2,2.5,13.4c3.2,12.5-0.9,26.4-4.1,26.7c-3.3,0.4-9.6-13.6-9.6-27.7
		c0-11,3.9-20.8,2.8-21.1c-0.9-0.3-3.3,8-5.3,7.7c-2.6-0.4-5.9-15.9,1-27.2c4.5-7.5,12.2-11.1,11.4-12.6c-0.8-1.5-7.9,2.5-10.3,0.4
		c-2.6-2.2-0.3-11.7,19-42.2c2.8,4.6,6.5,11.4,9.2,20.2C1090.4,1221.1,1089,1241.6,1086.2,1242.1z"/>
	<path class="st16" d="M1046.1,1190.1c-1.1,0.5-4.6-6.4-5.6-5.9c-0.6,0.3-0.2,2.8,0.6,4.8c1.2,3.2,2.7,3.4,3.6,6.3
		c0.3,1.1,1.2,3.7,0,5.2c-1.4,1.7-4.2,0.5-5,1.9c-0.8,1.3,1.3,3.3,2.8,6c2.9,5.5,2.7,12.6,1.2,13.1c-1.5,0.6-6.1-5.3-7.8-12
		c-1.3-5.2-0.6-10.3-1.1-10.3c-0.5,0-0.6,4.1-1.6,4.2c-1.3,0.1-4.6-6.8-2.7-13c1.3-4.1,4.5-6.7,3.9-7.3c-0.6-0.6-3.4,2.1-4.8,1.4
		c-1.5-0.7-1.5-5.5,4-22.2c1.9,1.8,4.4,4.6,6.7,8.4C1045.6,1179.7,1047.4,1189.5,1046.1,1190.1z"/>
	<path class="st16" d="M929,1197.5c-1.4-1,4.3-10.5,2.8-11.5c-0.8-0.5-3.6,1.9-5.4,4.4c-3,3.9-2.1,5.9-4.9,9.3
		c-1.1,1.3-3.6,4.3-6.5,3.9c-3.2-0.4-4-4.8-6.3-4.8c-2.2,0.1-3,4.1-5.3,8.1c-4.5,7.9-13.4,12.9-15.2,11.5
		c-1.9-1.5,1.7-11.6,8.7-18.8c5.4-5.6,12.2-8.6,11.8-9.3c-0.3-0.6-5.6,2.4-6.5,1.3c-1.1-1.5,4.8-11,13.9-13.3
		c6-1.6,11.7,0.5,12.1-0.8c0.3-1.2-5.3-2.7-5.5-4.9c-0.2-2.4,5.6-6.1,30.5-12c-0.8,3.7-2.3,9-5.2,14.8
		C941.4,1189,930.6,1198.7,929,1197.5z"/>
</g>
<g id="_x36_">
	<path class="st10" d="M261.6,1407.7c-4.5,3.3-6,2.9-12.9,6.9c-24.1,14-30.9,33.8-34.9,32.1c-4.5-1.8-3.7-29.6,12.3-50.6
		c17.8-23.4,46.2-27.8,55.3-28.8C279.8,1380.5,275.3,1397.6,261.6,1407.7z"/>
	<path class="st10" d="M260.1,1471.3c-6.1,0.2-7.1-1.1-15.7-1.7c-30-2.2-48.2,11.2-50.8,7.3c-2.9-4.4,14.8-28.6,41.9-37.6
		c30.2-10,58.2,3.5,66.9,8.1C292.9,1458.2,278.5,1470.7,260.1,1471.3z"/>
	<path class="st10" d="M202.9,1503.3c6.9-0.9,8.2,0.5,18.1,0.2c34.5-0.8,53.7-18.1,57.1-13.9c3.8,4.7-13.7,34.3-43.7,47.5
		c-33.3,14.7-66.8,2.4-77.2-1.9C166.9,1521.8,182,1506,202.9,1503.3z"/>
	<path class="st10" d="M145.3,1815.5c-16.5,2-23.4-2.4-49.8,1.3c-35.7,5-50.4,16.9-53.6,12.6c-5.4-7.5,29.7-55.9,79.8-67.7
		c11.7-2.8,11.2-0.5,38.1-4.3c51.2-7.3,67-17.6,70.5-12.3C236.6,1754.6,196.5,1809.4,145.3,1815.5z"/>
	<path class="st10" d="M203.9,1429.1c-1.4-5.9-2.9-6.6-5.7-14.8c-9.7-28.5-1.4-49.4-5.8-51c-5-1.7-24,21.5-25.8,50.1
		c-2,31.7,18.1,55.4,24.8,62.7C199.5,1464.2,208,1447,203.9,1429.1z"/>
	<path class="st10" d="M155.2,1480.4c-3.3-6.1-5.2-6.4-10.8-14.6c-19.5-28.5-16.8-54.2-22.1-54.5c-6-0.3-19.8,31.2-13,63.2
		c7.6,35.6,37.1,55.6,46.7,61.5C161.2,1520.4,165.2,1498.9,155.2,1480.4z"/>
	<path class="st10" d="M-49.3,1753.4c8.6,6.3,11.3,5.5,24.4,13.1c45.5,26.5,58.4,63.8,66,60.7c8.6-3.5-5.8-55.8-23.2-95.7
		c-10.4-23.8-16.2-30.2-18.8-32.8c-27.3-27.9-71.5-23.7-85.7-21.7C-83.7,1702.1-75.2,1734.4-49.3,1753.4z"/>
	<path class="st10" d="M133,1905.2c-10.6,0.2-12.4-2.1-27.5-3.3c-52.5-4.5-84.5,18.6-88.9,11.7c-5-7.7,26.4-49.7,74-64.9
		c53-16.8,101.7,7.3,116.8,15.6C190.6,1883,165.1,1904.6,133,1905.2z"/>
	<path class="st17" d="M5.8,2010.3c6-80.8,22.8-191.8,69.7-315.9c40.7-107.7,91.5-192.3,134.5-253.2"/>
	<path class="st17" d="M158.7-47.5c-11.2,15-66.7,92.6-51.5,200.1c14.1,99.8,79.3,157.2,95.1,170.4"/>
	<path class="st17" d="M1086.7,1935.9c-4.3-15.4-26.9-89.6-103.7-134.5c-73.7-43.1-146.1-29.3-162.5-25.8"/>
	<path class="st17" d="M927.6,872c29.8,18.6,98.4,67,142.7,158.5c38.2,79,39.4,151.2,37.7,186.3"/>
	<path class="st17" d="M-33.5,1151.4c11-44.7,42.1-145.6,132.8-235.8c77.2-76.8,160.6-109.3,204.1-122.9"/>
	<path class="st17" d="M850.3,91.2c5.3-17,15.9-42.1,37.7-65.4c52.5-56.3,126.5-55.8,140.7-55.5"/>
	<path class="st10" d="M169.6,1572.8c7.8-1,9.2,0.5,20.3,0.3c38.7-0.9,60.2-20.2,64-15.6c4.2,5.2-15.4,38.4-49,53.3
		c-37.4,16.5-74.9,2.7-86.6-2.1C129.3,1593.6,146.2,1575.8,169.6,1572.8z"/>
	<path class="st10" d="M81.4,1545.1c9.2,20,19.1,18.8,29.1,40.6c6.2,13.5,5.5,20.8,7.8,20.8c5.7,0,20.9-45.2,2.3-72.3
		c-6.6-9.6-11.6-8.5-29.3-29.1c-7.2-8.4-12.3-15.5-15.5-14.2c-1.3,0.5-3,2.7-2,16.2C74.9,1522.3,75.7,1532.6,81.4,1545.1z"/>
	<path class="st10" d="M174.3,1705.8c-4.1,1-5.3,0.9-21.7,2.9c-65.9,7.9-76.5,11.7-78.7,7.4c-4.3-8.4,27.3-40.3,67.4-54.7
		c39.9-14.4,77-7.4,96.9-1.8C225.7,1676.8,205,1698.6,174.3,1705.8z"/>
	<path class="st10" d="M72.2,1643.4c-4.5-8.2-7-8.6-14.5-19.6c-26.3-38.3-22.6-72.8-29.8-73.2c-8.1-0.5-26.6,41.9-17.5,85
		c10.2,47.9,49.9,74.8,62.8,82.8C80.3,1697.3,85.7,1668.3,72.2,1643.4z"/>
	<path class="st10" d="M-28.8,1807.9c4.8,9.5,3.5,12.1,8.9,26.2c18.6,49.2,53.3,68.1,49,75.1c-4.8,7.8-56.3-2.3-90.5-38.7
		c-38.1-40.5-37.4-94.9-36.5-112.1C-73.7,1765.5-43.3,1779.2-28.8,1807.9z"/>
	<path class="st18" d="M248.4,339.1c-4.4-1.5-5.5-0.8-12-2.3c-22.7-5.2-33-19.2-35.8-16.9c-3.1,2.6,4.4,24.5,22.4,37.3
		c20,14.2,43.8,10.6,51.3,9.2C269.6,356.2,261.8,343.7,248.4,339.1z"/>
	<path class="st18" d="M235.4,287.8c-4.9,1.4-5.4,2.6-12.1,5.3c-23.4,9.3-41.2,3.1-42.3,6.9c-1.2,4.2,18.9,19.1,42.8,19.5
		c26.5,0.4,45.5-17.3,51.3-23.2C264.8,290.1,250.2,283.7,235.4,287.8z"/>
	<path class="st18" d="M197.8,280.4c5.7-1,6.5-2.4,14.4-4.7c27.7-8,47.4,1,49-3.2c1.8-4.7-19.5-23.9-46.7-27
		c-30.2-3.4-53.9,14.7-61.1,20.8C164.5,274.6,180.5,283.5,197.8,280.4z"/>
	<path class="st18" d="M187.8,324.6c0.4,5.1-0.6,6-0.8,13.2c-0.7,25.2,11.2,39.8,8.1,42.1c-3.5,2.6-24.5-11.2-33-33.5
		c-9.5-24.8,0.6-48.7,4.1-56.2C175.6,297.7,186.6,309.3,187.8,324.6z"/>
	<path class="st18" d="M143.5,295.6c-2,5.5-3.5,5.9-7.2,13.3c-12.7,25.9-7.3,46.8-11.7,47.7c-4.9,1-20.1-23.4-18.4-50.7
		c1.9-30.4,24-50.4,31.2-56.5C143.6,261.8,149.5,279.1,143.5,295.6z"/>
	<path class="st18" d="M236-4c-8.9-0.5-10.4,1.3-23,1.9C169,0,143-20.2,139.1-14.6c-4.4,6.3,20.5,42.4,59.8,56.5
		c43.7,15.7,85.1-2.9,98-9.3C283.4,16.3,262.8-2.5,236-4z"/>
	<path class="st18" d="M175.8,230.7c7.6-1.5,7.1-2.7,16.1-5.3c31.1-9,53.1,1.1,54.9-3.6c2.1-5.2-21.8-26.8-52.3-30.2
		c-33.9-3.8-60.4,16.5-68.5,23.3c-0.7,1.9-0.6,3.4-0.4,4.4C127.8,229.4,153.7,235.1,175.8,230.7z"/>
	<path class="st18" d="M73.7,225.3c10.4-15.2,18.3-12.9,29.5-29.5c7-10.3,7.4-16.4,9.3-16c4.7,0.8,11,40.1-8,59.9
		c-6.7,7-10.7,5.4-28.1,19.9c-7.1,5.9-12.3,11-14.7,9.6c-1-0.6-2.1-2.6,0.6-13.6C65.2,243.2,67.2,234.8,73.7,225.3z"/>
	<path class="st18" d="M190,130.1c-3.5-0.1-4.5,0.1-18.3,1.4c-55.2,4.9-64.6,3.6-65.6,7.5c-2.1,7.6,29.2,28.3,64.5,33.1
		c35.1,4.9,64.2-7.3,79.5-15.2C237,145,216.4,130.7,190,130.1z"/>
	<path class="st18" d="M80.3,150c-6,5-8.1,4.6-17.3,10.8c-32.1,21.7-39.8,49.7-45.6,47.8c-6.4-2.1-7.9-40.7,12.4-71.4
		C52.5,103,91.6,94.3,104.1,92C103.1,110.6,98.5,134.7,80.3,150z"/>
	<path class="st18" d="M54.5,5.4c8.2-3.5,8.7-5.8,19.7-12c38.4-21.5,70.7-15,71.7-21.7c1.1-7.6-37.3-28.8-78.7-23.9
		C21.2-46.8-7.6-11.6-16.3-0.1C3,8.4,29.9,16,54.5,5.4z"/>
	<path class="st18" d="M72.8,75.3c-7.4,2.5-9.2,1.3-20,3.7C15,87.5-2.4,110.8-7.1,106.9c-5.2-4.3,7.6-40.8,37.7-62
		c33.5-23.5,73.1-17.4,85.5-14.9C108.4,47,95.3,67.8,72.8,75.3z"/>
	<path class="st18" d="M208.9,66.1c-14.8,0-18,2.8-33,3.3c-37.4,1.3-59.1-14.5-61.8-10.1c-3.1,5.3,22.5,37.6,59.4,44.4
		c40.5,7.5,75.3-18.2,86-26.8C247.8,71.8,230.3,66.1,208.9,66.1z"/>
	<path class="st10" d="M859.5,876.2c0-2.9,18.2-4.2,18.1-7c-0.1-1.6-6-2.9-11-3.1c-8.1-0.2-10,2.8-17.2,2.2
		c-2.7-0.2-9.2-0.8-11.4-4.8c-2.5-4.6,2.7-9.8,0.4-12.8c-2.2-2.8-8.5-0.1-15.8,0.6c-14.9,1.4-30.1-5.6-30-9.4
		c0.2-3.9,17.3-8.6,33.5-6.2c12.7,1.9,23.2,8.1,23.7,6.9c0.5-1-8.6-5.2-7.9-7.4c0.9-2.9,19.3-3.9,31.1,5.9
		c7.8,6.5,10.6,16,12.5,15.3c1.9-0.7-1.5-9.5,1.3-11.9c3-2.5,13.5,1.7,45.2,29.2c-5.8,2.4-14.2,5.4-24.8,7.1
		C882.9,884.6,859.5,879.4,859.5,876.2z"/>
	<path class="st10" d="M1271.7,456.5"/>
	<path class="st10" d="M908.4,932.3c-1.1-2.7,15.4-10.6,14.2-13.2c-0.7-1.5-6.7-0.5-11.4,1.2c-7.6,2.7-8.2,6.3-15.2,8.3
		c-2.6,0.8-8.9,2.7-12.4-0.3c-4.1-3.4-1-10.1-4.3-12c-3.1-1.9-7.9,3-14.5,6.3c-13.3,6.8-30.1,5.8-31.3,2.2
		c-1.3-3.7,12.9-14.4,28.9-18c12.5-2.8,24.5-1,24.6-2.2c0.1-1.1-9.9-1.7-10-4c-0.2-3,16.5-10.7,31.1-5.9c9.6,3.2,15.7,11,17.2,9.6
		c1.5-1.3-4.8-8.3-3.1-11.5c1.8-3.5,13.2-3.3,52.7,10.6c-4.5,4.4-11.3,10.2-20.5,15.6C933.2,931.6,909.6,935.3,908.4,932.3z"/>
	<path class="st10" d="M949.3,950.3c-1.8-0.9,3.3-13.1,1.5-13.9c-1.1-0.5-3.9,2.9-5.6,6c-2.8,5.1-1.5,7.3-4.3,11.8
		c-1,1.7-3.6,5.7-6.9,5.7c-3.8,0.1-5.4-5-8.1-4.5c-2.5,0.5-2.9,5.4-4.9,10.4c-4,10-13.6,17.5-15.9,16.1c-2.5-1.4,0.2-14,7.1-23.5
		c5.4-7.5,12.9-12.2,12.3-12.9c-0.5-0.7-6.2,3.8-7.4,2.6c-1.6-1.5,3.9-13.7,14.1-18c6.8-2.9,13.8-1.5,14-3c0.2-1.5-6.6-2.2-7.2-4.8
		c-0.6-2.8,5.6-8.1,33.7-19.3c-0.3,4.5-1.2,10.9-3.7,18.2C962.4,938,951.4,951.3,949.3,950.3z"/>
	<path class="st10" d="M996.6,974.1c-4,2.1-9.9-7.3-16-5.1c-4.9,1.8-6.5,9.8-7.1,12.8c-1.8,8.8,1.6,13.2-1.4,16.1
		c-2.9,2.8-9.6,2.1-11.6-0.9c-1.6-2.3,0.5-4.5-1.1-7.6c-1.5-2.9-5.4-5-8-4.2c-2.3,0.7-4.3,3.8-5.4,18.9c-1.6,20.5,1,28.3-1.3,29.1
		c-3.6,1.3-18.8-16.7-15.4-33.1c1.9-9.1,9.1-16.1,7.3-17.8c-1.6-1.6-8.1,3.8-9.4,2.5c-1.6-1.7,5.1-15.3,17.8-21.5
		c9.5-4.6,19.2-3.7,19.6-7c0.3-2.2-4-3-4.5-6.2c-0.9-6.1,13.4-13.3,21.7-16.4c8-3,15.2-3.9,20.2-4.2c-1.6,4.7-3.5,11.9-4,20.8
		C997.4,963.4,1000.2,972.2,996.6,974.1z"/>
	<path class="st10" d="M1034.4,1025.2c-2.8,0.3-6.3-17.6-9.1-17.1c-1.6,0.3-2.2,6.3-1.8,11.3c0.7,8,3.9,9.6,4.2,16.8
		c0.1,2.7,0.3,9.3-3.5,11.9c-4.3,3.1-10-1.6-12.7,1.1c-2.6,2.5,0.9,8.4,2.4,15.7c3.2,14.6-2.1,30.6-5.8,30.8
		c-3.9,0.3-10.6-16.2-10-32.5c0.4-12.8,5.3-23.9,4.1-24.4c-1.1-0.4-4.2,9.1-6.4,8.7c-3-0.5-6.2-18.7,2.2-31.5
		c5.5-8.5,14.6-12.4,13.7-14.2c-0.9-1.8-9.3,2.6-12,0.1c-2.9-2.7,0.2-13.6,23.7-48.3c3.1,5.4,7,13.5,9.9,23.8
		C1040,1001,1037.6,1024.8,1034.4,1025.2z"/>
	<path class="st10" d="M1007.9,963c-1.4,0.2-3.2-8.5-4.6-8.2c-0.8,0.2-1,3.1-0.8,5.5c0.4,3.9,2,4.6,2.2,8.1c0.1,1.3,0.2,4.5-1.6,5.8
		c-2.1,1.5-4.9-0.7-6.2,0.6c-1.2,1.2,0.5,4.1,1.3,7.6c1.7,7.1-0.7,14.9-2.5,15.1c-1.9,0.2-5.3-7.8-5.2-15.7
		c0.1-6.2,2.3-11.7,1.8-11.9c-0.5-0.2-1.9,4.5-3,4.3c-1.5-0.2-3.2-9,0.8-15.4c2.6-4.2,7-6.2,6.5-7c-0.5-0.9-4.5,1.3-5.8,0.2
		c-1.4-1.3-0.1-6.6,11.1-23.7c1.6,2.6,3.6,6.5,5.1,11.5C1010.4,951.2,1009.4,962.8,1007.9,963z"/>
	<path class="st10" d="M348.7,802.6c0-2.9-18.2-4.2-18.1-7c0.1-1.6,6-2.9,11-3.1c8.1-0.2,10,2.8,17.2,2.2c2.7-0.2,9.2-0.8,11.4-4.8
		c2.5-4.6-2.7-9.8-0.4-12.8c2.2-2.8,8.5-0.1,15.8,0.6c14.9,1.4,30.1-5.6,30-9.4c-0.2-3.9-17.3-8.6-33.5-6.2
		c-12.7,1.9-23.2,8.1-23.7,6.9c-0.5-1,8.6-5.2,7.9-7.4c-0.9-2.9-19.3-3.9-31.1,5.9c-7.8,6.5-10.6,16-12.5,15.3
		c-1.9-0.7,1.5-9.5-1.3-11.9c-3-2.5-13.5,1.7-45.2,29.2c5.8,2.4,14.2,5.4,24.8,7.1C325.4,811,348.7,805.8,348.7,802.6z"/>
	<path class="st10" d="M301.9,857.4c1.7-2.3-12-14.4-10.1-16.5c1-1.2,6.6,1.3,10.6,4.2c6.6,4.7,6.2,8.3,12.3,12.2
		c2.3,1.5,7.8,5,12,3.1c4.8-2.2,3.8-9.4,7.4-10.4c3.5-1,6.8,5,12.3,10c11,10.2,27.4,13.8,29.5,10.7c2.2-3.2-8.5-17.3-22.9-25.2
		c-11.3-6.1-23.3-7.6-23.1-8.8c0.2-1.1,9.9,1,10.7-1.1c1.1-2.9-13-14.8-28.3-14.2c-10.1,0.4-18.1,6.3-19.2,4.6
		c-1.1-1.7,6.9-6.7,6.1-10.3c-0.8-3.8-11.8-6.8-53.6-4.1c3.1,5.4,8,12.9,15.4,20.6C278.2,850,299.9,860,301.9,857.4z"/>
	<path class="st10" d="M257.6,863.6c2-0.4,0.4-13.5,2.4-13.8c1.2-0.2,3,3.9,3.8,7.4c1.3,5.7-0.6,7.5,0.9,12.5
		c0.6,1.9,1.9,6.4,5.1,7.4c3.6,1.1,6.5-3.3,9-2.1c2.3,1.1,1.3,6,1.9,11.3c1.1,10.7,8.3,20.5,10.9,19.9c2.7-0.7,3.6-13.5-0.4-24.6
		c-3.2-8.7-9-15.2-8.3-15.8c0.6-0.5,4.9,5.3,6.4,4.5c1.9-1,0-14.2-8.6-21.2c-5.7-4.6-12.8-5.2-12.6-6.7c0.2-1.5,6.9-0.3,8.2-2.6
		c1.4-2.5-3.2-9.3-27.2-27.8c-0.9,4.4-1.8,10.8-1.5,18.6C248.3,848.2,255.3,864,257.6,863.6z"/>
	<path class="st10" d="M92.5,983.5c4.4,3.8,10.7-6,17.4-1.4c5.4,3.7,7.4,14.3,8.1,18.2c2.1,11.6-1.4,16,1.9,20.5
		c3.3,4.4,10.6,5.5,12.7,2.5c1.7-2.3-0.7-5.8,1-9.1c1.6-3.1,5.8-4.6,8.7-2.8c2.5,1.6,4.8,6.1,6.4,25.3c2.2,26.1-0.4,35.1,2,36.8
		c4,2.8,20.3-15,16.2-36.6c-2.3-11.9-10.4-22.9-8.5-24.6c1.8-1.5,9,7.3,10.3,6c1.7-1.6-5.9-20.6-20-32.3
		c-10.5-8.7-21.2-10.5-21.7-14.8c-0.4-2.9,4.4-2.5,4.8-6.4c0.9-7.4-15-20.7-24.2-27.2c-8.9-6.2-16.8-9.6-22.2-11.5
		c1.8,6.4,4.1,16,4.8,27.2C91.3,969.9,88.5,980,92.5,983.5z"/>
	<path class="st10" d="M42.8,1040.9c2.8,0.3,6.3-17.6,9.1-17.1c1.6,0.3,2.2,6.3,1.8,11.3c-0.7,8-3.9,9.6-4.2,16.8
		c-0.1,2.7-0.3,9.3,3.5,11.9c4.3,3.1,10-1.6,12.7,1.1c2.6,2.5-0.9,8.4-2.4,15.7c-3.2,14.6,2.1,30.6,5.8,30.8
		c3.9,0.3,10.6-16.2,10-32.5c-0.4-12.8-5.3-23.9-4.1-24.4c1.1-0.4,4.2,9.1,6.4,8.7c3-0.5,6.2-18.7-2.2-31.5
		c-5.5-8.5-14.6-12.4-13.7-14.2c0.9-1.8,9.3,2.6,12,0.1c2.9-2.7-0.2-13.6-23.7-48.3c-3.1,5.4-7,13.5-9.9,23.8
		C37.2,1016.7,39.6,1040.5,42.8,1040.9z"/>
	<path class="st10" d="M77.6,958.7c1.3,0.4,4.2-8,5.6-7.6c0.7,0.2,0.6,3.2,0.1,5.6c-0.9,3.8-2.6,4.3-3.2,7.8c-0.2,1.3-0.8,4.4,0.9,6
		c1.9,1.8,4.9-0.1,6.1,1.4c1.1,1.4-1,4-2.2,7.4c-2.5,6.8-1.1,14.9,0.7,15.3c1.9,0.4,6.2-7.1,7.1-15c0.7-6.2-0.9-11.9-0.3-12
		c0.5-0.1,1.4,4.7,2.5,4.6c1.5-0.1,4.3-8.6,1.1-15.3c-2.1-4.5-6.2-7-5.6-7.8c0.6-0.8,4.3,1.9,5.8,0.9c1.6-1.1,0.9-6.6-8.1-24.9
		c-1.9,2.4-4.3,6-6.4,10.8C76.6,946.7,76.1,958.3,77.6,958.7z"/>
	<path class="st10" d="M212,893.5c2.8-0.6,0.8-15.1,3.6-15.7c1.6-0.3,4,4,5,7.9c1.7,6.2-0.9,8.4,1,13.9c0.7,2.1,2.4,7,6.8,7.8
		c5,0.9,9-4.3,12.4-3.2c3.2,1,1.7,6.6,2.3,12.5c1.3,11.9,10.9,22.2,14.6,21.2c3.8-1,5.3-15.4-0.1-27.5c-4.2-9.4-12.1-16.2-11.1-16.9
		c0.9-0.6,6.6,5.5,8.6,4.5c2.7-1.4,0.3-15.9-11.3-22.9c-7.7-4.6-17.5-4.6-17.2-6.3c0.3-1.6,9.5-1,11.3-3.7
		c1.9-2.9-4.1-10.2-36.6-28.6c-1.3,5-2.7,12.3-2.4,20.9C199.6,877.2,208.9,894.2,212,893.5z"/>
	<path class="st10" d="M170.6,945.3c2.6-1.2-4.1-18.9-1.4-19.9c1.5-0.6,5.3,4.4,7.6,9.1c3.7,7.5,1.8,10.5,5.5,17.1
		c1.4,2.5,4.7,8.3,9.4,8.7c5.3,0.4,7.7-6.7,11.4-5.8c3.5,0.8,3.8,7.9,6.4,15.1c5.2,14.6,18.2,25.9,21.5,24.2
		c3.5-1.8,0.3-19.9-8.9-34c-7.3-11.1-17.4-18.4-16.6-19.4c0.7-0.9,8.4,5.9,10.1,4.3c2.3-2.1-4.8-19.8-18.8-26.7
		c-9.3-4.6-19.1-3.2-19.3-5.4c-0.2-2.1,9.3-2.6,10.2-6.2c1-3.9-7.5-12-46.1-30.2c0.3,6.4,1.3,15.6,4.3,26.2
		C152.8,926.9,167.6,946.7,170.6,945.3z"/>
	<path class="st10" d="M189.5,867.2c1.3,0.4,4.2-8,5.6-7.6c0.7,0.2,0.6,3.2,0.1,5.6c-0.9,3.8-2.6,4.3-3.2,7.8
		c-0.2,1.3-0.8,4.4,0.9,6c1.9,1.8,4.9-0.1,6.1,1.4c1.1,1.4-1,4-2.2,7.4c-2.5,6.8-1.1,14.9,0.7,15.3c1.9,0.4,6.2-7.1,7.1-15
		c0.7-6.2-0.9-11.9-0.3-12c0.5-0.1,1.4,4.7,2.5,4.6c1.5-0.1,4.3-8.6,1.1-15.3c-2.1-4.5-6.2-7-5.6-7.8c0.6-0.8,4.3,1.9,5.8,0.9
		c1.6-1.1,0.9-6.6-8.1-24.9c-1.9,2.4-4.3,6-6.4,10.8C188.4,855.2,188,866.8,189.5,867.2z"/>
	<path class="st10" d="M175.2,891.3c0.4-1.3-8-4.2-7.6-5.6c0.2-0.7,3.2-0.6,5.6-0.1c3.8,0.9,4.3,2.6,7.8,3.2c1.3,0.2,4.4,0.8,6-0.9
		c1.8-1.9-0.1-4.9,1.4-6.1c1.4-1.1,4,1,7.4,2.2c6.8,2.5,14.9,1.1,15.3-0.7c0.4-1.9-7.1-6.2-15-7.1c-6.2-0.7-11.9,0.9-12,0.3
		c-0.1-0.5,4.7-1.4,4.6-2.5c-0.1-1.5-8.6-4.3-15.3-1.1c-4.5,2.1-7,6.2-7.8,5.6c-0.8-0.6,1.9-4.3,0.9-5.8c-1.1-1.6-6.6-0.9-24.9,8.1
		c2.4,1.9,6,4.3,10.8,6.4C163.1,892.4,174.8,892.8,175.2,891.3z"/>
	<path class="st10" d="M138.2,928.4c2.1,0.1,3.7-13,5.7-12.8c1.2,0.1,1.9,4.5,1.8,8.1c-0.1,5.8-2.4,7.1-2.2,12.3
		c0.1,2,0.2,6.7,3.1,8.4c3.3,2,7.2-1.6,9.2,0.1c2,1.7-0.2,6.1-1,11.4c-1.6,10.7,3,21.9,5.7,21.9c2.8,0,6.8-12.2,5.6-23.9
		c-1-9.2-5-17-4.2-17.4c0.7-0.3,3.4,6.4,5.1,5.9c2.1-0.5,3.5-13.8-3.1-22.6c-4.4-5.9-11.2-8.2-10.6-9.6c0.6-1.4,6.8,1.4,8.6-0.5
		c1.9-2.1-0.8-9.8-19.5-33.6c-2,4.1-4.4,10.1-6,17.6C133,911.2,135.9,928.3,138.2,928.4z"/>
	<path class="st10" d="M61,1031.2c2-0.4,0.4-13.5,2.4-13.8c1.2-0.2,3,3.9,3.8,7.4c1.3,5.7-0.6,7.5,0.9,12.5c0.6,1.9,1.9,6.4,5.1,7.4
		c3.6,1.1,6.5-3.3,9-2.1c2.3,1.1,1.3,6,1.9,11.3c1.1,10.7,8.3,20.5,10.9,19.9c2.7-0.7,3.6-13.5-0.4-24.6c-3.2-8.7-9-15.2-8.3-15.8
		c0.6-0.5,4.9,5.3,6.4,4.5c1.9-1,0-14.2-8.6-21.2c-5.7-4.6-12.8-5.2-12.6-6.7c0.2-1.5,6.9-0.3,8.2-2.6c1.4-2.5-3.2-9.3-27.2-27.8
		c-0.9,4.4-1.8,10.8-1.5,18.6C51.7,1015.9,58.7,1031.7,61,1031.2z"/>
	<path class="st10" d="M815.6,100.2c3.6-1.2,4.5-0.6,9.7-1.8c18.4-4.1,26.8-15.4,29-13.6c2.5,2.1-3.6,19.8-18.2,30.1
		c-16.2,11.5-35.5,8.5-41.5,7.3C798.3,114,804.7,103.9,815.6,100.2z"/>
	<path class="st10" d="M814.4,59.5c4,1.1,4.4,2.2,9.8,4.3c18.9,7.6,33.3,2.6,34.2,5.7c1,3.4-15.4,15.4-34.7,15.7
		c-21.5,0.3-36.8-14.1-41.5-18.9C790.6,61.3,802.4,56.2,814.4,59.5z"/>
	<path class="st10" d="M851.5,42.2c-4.6-0.8-5.2-2-11.6-3.9c-22.4-6.5-38.3,0.7-39.6-2.7c-1.5-3.8,15.8-19.3,37.9-21.7
		c24.5-2.7,43.5,12.1,49.4,17C878.5,37.6,865.5,44.8,851.5,42.2z"/>
	<path class="st10" d="M853,100.5c1.2,3.9,2.2,4.3,4.4,9.7c7.7,18.8,2.9,33.3,6,34.2c3.4,0.9,15.3-15.5,15.4-34.8
		c0.1-21.5-14.5-36.7-19.3-41.3C854.5,76.7,849.5,88.6,853,100.5z"/>
	<path class="st10" d="M878.9,65.2c1.3,4.5,2.5,5,5.1,11.1c8.9,21.6,3.5,38.2,7,39.1c3.9,1.1,17.5-17.8,17.5-40
		c0-24.6-16.7-42-22.3-47.3C880.5,37.8,874.8,51.5,878.9,65.2z"/>
	<path class="st10" d="M976,25c-2.1-3.9-3.4-4.1-7-9.4c-12.6-18.3-10-34.6-13.6-34.8c-5.2-0.4-18.2,22.3-10.6,39.9
		c1.8,4.1,3.8,5.9,9.6,12.7c9.5,11.2,16.4,20.7,20.6,27C979,50.5,982.4,36.9,976,25z"/>
	<path class="st10" d="M882.3,10.9c-5.2-0.9-5.8-2.2-13-4.3c-25.1-7.3-43,0.7-44.4-3c-1.7-4.2,17.8-21.6,42.4-24.3
		c27.4-3,48.8,13.5,55.4,19.1C912.6,5.8,898.1,13.7,882.3,10.9z"/>
	<path class="st10" d="M936.9,42.3c-1.9-14.8-8.5-16-10.4-32.1c-1.2-10,0.7-14.5-0.8-15c-3.7-1.2-22.7,24.9-16.3,46.1
		c2.3,7.5,5.7,7.8,13,24.7c2.9,6.9,4.8,12.5,7.1,12.3c0.9-0.1,2.5-1.1,4.6-10C936.4,58.3,938,51.5,936.9,42.3z"/>
</g>
</svg>
